<?xml version="1.0" standalone="no"?>
<!DOCTYPE svg PUBLIC "-//W3C//DTD SVG 20010904//EN"
 "http://www.w3.org/TR/2001/REC-SVG-20010904/DTD/svg10.dtd">
<svg version="1.0" xmlns="http://www.w3.org/2000/svg"
 width="1280.000000pt" height="640.000000pt" viewBox="0 0 1280.000000 640.000000"
 preserveAspectRatio="xMidYMid meet">
<metadata>
Created by potrace 1.15, written by Peter Selinger 2001-2017
</metadata>
<g transform="translate(0.000000,640.000000) scale(0.100000,-0.100000)"
fill="#000000" stroke="none">
<path d="M1826 6014 c-218 -43 -388 -149 -454 -283 l-27 -56 0 -2475 0 -2475
27 -56 c58 -118 205 -219 393 -271 72 -20 110 -22 383 -26 l303 -4 11 -24 c14
-31 38 -31 68 1 30 32 44 32 58 0 15 -32 47 -32 68 0 l16 25 3638 0 c3263 0
3646 2 3720 16 226 42 389 144 458 284 l27 55 0 2475 0 2475 -27 55 c-69 140
-232 242 -458 284 -74 14 -490 16 -4109 15 -3358 -1 -4037 -3 -4095 -15z
m8154 -2814 l0 -2330 -4050 0 -4050 0 0 2330 0 2330 4050 0 4050 0 0 -2330z"/>
</g>
</svg>
