<?xml version="1.0" encoding="UTF-8" standalone="no"?>
<svg
   xmlns:dc="http://purl.org/dc/elements/1.1/"
   xmlns:cc="http://creativecommons.org/ns#"
   xmlns:rdf="http://www.w3.org/1999/02/22-rdf-syntax-ns#"
   xmlns:svg="http://www.w3.org/2000/svg"
   xmlns="http://www.w3.org/2000/svg"
   xmlns:sodipodi="http://sodipodi.sourceforge.net/DTD/sodipodi-0.dtd"
   xmlns:inkscape="http://www.inkscape.org/namespaces/inkscape"
   width="159.10277mm"
   height="106.53889mm"
   viewBox="0 0 159.10277 106.53889"
   version="1.1"
   id="svg8"
   inkscape:version="1.0.1 (3bc2e813f5, 2020-09-07)"
   sodipodi:docname="control-system.svg">
  <defs
     id="defs2" />
  <sodipodi:namedview
     id="base"
     pagecolor="#ffffff"
     bordercolor="#666666"
     borderopacity="1.0"
     inkscape:pageopacity="0.0"
     inkscape:pageshadow="2"
     inkscape:zoom="0.7"
     inkscape:cx="560.80043"
     inkscape:cy="415.81063"
     inkscape:document-units="mm"
     inkscape:current-layer="layer1"
     inkscape:document-rotation="0"
     showgrid="false"
     fit-margin-top="0"
     fit-margin-left="0"
     fit-margin-right="0"
     fit-margin-bottom="0"
     inkscape:window-width="1254"
     inkscape:window-height="1040"
     inkscape:window-x="208"
     inkscape:window-y="0"
     inkscape:window-maximized="0" />
  <metadata
     id="metadata5">
    <rdf:RDF>
      <cc:Work
         rdf:about="">
        <dc:format>image/svg+xml</dc:format>
        <dc:type
           rdf:resource="http://purl.org/dc/dcmitype/StillImage" />
        <dc:title></dc:title>
      </cc:Work>
    </rdf:RDF>
  </metadata>
  <g
     inkscape:label="Ebene 1"
     inkscape:groupmode="layer"
     id="layer1"
     transform="translate(-27.793856,-87.337708)">
    <path
       style="fill:#000000;stroke-width:0.352778"
       d="m 31.044451,192.46549 c -0.38805,-0.38806 -0.70555,-0.95025 -0.70555,-1.2493 0,-0.29906 0.87312,-4.06594 1.94027,-8.37084 l 1.94028,-7.82709 V 150.4718 c 0,-20.64142 0.0797,-24.6554 0.50068,-25.23125 0.48893,-0.66872 1.31519,-0.68697 35.22376,-0.77804 l 34.723099,-0.0933 0.93596,0.73622 0.93595,0.73623 0.009,24.93342 0.009,24.93342 1.903,7.54758 c 1.99395,7.90825 2.04649,8.76028 0.58827,9.5407 -0.48059,0.25719 -12.676969,0.37422 -38.998859,0.37422 -37.82921,0 -38.30825,-0.009 -39.00514,-0.70555 z m 77.774289,-0.91912 c 0.31148,-0.31149 0.48659,-0.82743 0.38913,-1.14653 -0.0975,-0.3191 -0.97598,-3.81781 -1.95225,-7.77491 l -1.77505,-7.19472 v -24.44188 c 0,-21.74953 -0.0611,-24.50296 -0.55437,-24.99626 -0.49628,-0.49628 -4.11113,-0.55436 -34.504799,-0.55436 -28.75906,0 -34.05514,0.0765 -34.63522,0.50056 -0.66415,0.48548 -0.6901,1.27485 -0.86117,26.19375 l -0.17639,25.69319 -1.71941,6.61396 c -1.4006,5.38765 -1.63788,6.71219 -1.27972,7.14375 0.38609,0.4652 5.07603,0.52979 38.47129,0.52979 34.444979,0 38.085019,-0.0534 38.597959,-0.56634 z m -74.246509,-2.62929 c 0,-0.32371 1.45588,-6.31633 2.50189,-10.29812 l 0.34753,-1.32292 h 32.9273 32.927309 l 1.45493,5.81358 c 0.80022,3.19747 1.45494,5.89622 1.45494,5.99722 0,0.10101 -16.113139,0.18365 -35.806959,0.18365 -24.95527,0 -35.80694,-0.11317 -35.80694,-0.37341 z m 70.202779,-0.70919 c 0,-0.32982 -1.11958,-4.95651 -2.14962,-8.88338 l -0.34702,-1.32291 -32.000989,1e-4 -32.00098,1e-4 -1.19863,4.85059 c -0.65925,2.66783 -1.27154,5.04903 -1.36066,5.29157 -0.12893,0.35088 6.90873,0.44097 34.44793,0.44097 24.32297,0 34.609969,-0.11207 34.609969,-0.37704 z M 37.909321,174.03285 c -0.0927,-0.24254 -0.12741,-10.60097 -0.0771,-23.01875 l 0.0914,-22.57778 32.36736,-0.09 32.367369,-0.09 v 23.10879 23.10879 H 70.368101 c -25.50711,0 -32.32564,-0.0926 -32.45878,-0.44097 z M 101.95279,151.36688 V 129.31826 H 70.379171 38.805561 v 22.04862 22.04861 h 31.57361 31.573619 z M 42.176951,171.5731 c -0.48108,-0.68684 -0.54917,-3.22036 -0.54917,-20.43551 v -19.65145 l 0.93762,-0.73753 c 0.93512,-0.73557 1.00968,-0.73728 28.03334,-0.64297 25.46907,0.0889 27.13354,0.13239 27.72558,0.72453 0.58976,0.58987 0.62985,1.89955 0.62985,20.57774 0,19.33897 -0.0209,19.96307 -0.68479,20.44851 -0.57751,0.42229 -4.98165,0.50073 -28.11402,0.50073 h -27.42924 z m 55.18972,-0.62706 c 0.68803,-0.68802 0.70556,-1.17592 0.70556,-19.63958 0,-17.12325 -0.0558,-18.99573 -0.58385,-19.57917 -0.55576,-0.61411 -1.86081,-0.64514 -27.13869,-0.64514 -23.6704,0 -26.61506,0.0602 -27.10921,0.55437 -0.49037,0.49037 -0.55436,2.76848 -0.55436,19.73555 v 19.18119 l 0.78405,0.54917 c 0.69254,0.48507 3.84229,0.54917 26.9875,0.54917 25.73308,0 26.21611,-0.0127 26.909,-0.70556 z m -51.85833,-19.57678 v -17.46488 h 24.87415 24.87416 l -0.0915,17.3743 -0.0915,17.37431 -24.78263,0.0906 -24.78264,0.0906 z m 48.68333,-0.002 v -16.40464 h -23.98889 -23.98889 v 16.40417 16.40416 h 23.98889 23.98889 z m -44.43736,12.63602 c -0.72899,-0.92675 -0.74208,-1.19302 -0.64297,-13.08152 0.0962,-11.54279 0.13461,-12.15997 0.78595,-12.63594 0.87681,-0.64074 2.34005,-0.6406 3.21654,3.1e-4 0.65539,0.47923 0.68479,1.03331 0.68479,12.90756 v 12.40683 l -0.83284,0.67438 c -1.16709,0.94506 -2.33193,0.84654 -3.21147,-0.27162 z m 2.608,-0.66669 c 0.48086,-0.48086 0.55436,-2.05081 0.55436,-11.84125 0,-7.1057 -0.13528,-11.53966 -0.36519,-11.96924 -0.20085,-0.3753 -0.67152,-0.68237 -1.04592,-0.68237 -0.3744,0 -0.84507,0.30707 -1.04592,0.68237 -0.22991,0.42958 -0.36519,4.86354 -0.36519,11.96924 0,9.79044 0.0735,11.36039 0.55437,11.84125 0.3049,0.3049 0.69043,0.55437 0.85674,0.55437 0.16631,0 0.55185,-0.24947 0.85675,-0.55437 z m 5.21897,1.06353 c -0.7745,-0.54248 -0.78405,-0.6561 -0.78405,-9.32861 0,-8.6725 0.01,-8.78612 0.78405,-9.32861 1.06943,-0.74906 2.25072,-0.6894 3.0965,0.15639 0.66636,0.66636 0.70556,1.17592 0.70556,9.17222 0,7.9963 -0.0392,8.50587 -0.70556,9.17222 -0.84578,0.84579 -2.02707,0.90545 -3.0965,0.15639 z m 2.35449,-0.9944 c 0.28216,-0.33999 0.37429,-2.88927 0.30778,-8.51668 -0.0865,-7.31634 -0.15187,-8.06625 -0.7344,-8.4224 -0.52075,-0.31839 -0.76633,-0.23636 -1.32291,0.44187 -0.62718,0.76425 -0.68346,1.43319 -0.68346,8.12359 0,6.02774 0.0951,7.42658 0.54917,8.0748 0.62729,0.89558 1.29999,1.00229 1.88382,0.29882 z m 4.97535,0.83801 c -0.67359,-0.67358 -0.70556,-1.17592 -0.70556,-11.08689 V 142.7755 l 0.95487,-0.7511 c 1.06479,-0.83757 2.43849,-0.7267 3.19027,0.25746 0.32996,0.43196 0.44097,3.21953 0.44097,11.07319 0,10.44625 -0.004,10.4985 -0.78405,11.04507 -1.06943,0.74906 -2.25072,0.6894 -3.0965,-0.15639 z m 2.62583,-1.13683 c 0.46178,-0.65929 0.54917,-2.19928 0.54917,-9.67842 0,-4.8919 -0.14659,-9.27993 -0.32576,-9.75117 -0.41887,-1.10171 -1.27112,-1.42241 -1.95709,-0.73644 -0.45805,0.45804 -0.53938,2.01434 -0.53938,10.3214 0,9.86844 0.0919,10.62869 1.28528,10.62869 0.24123,0 0.68573,-0.35283 0.98778,-0.78406 z m 61.382569,28.50555 c -0.64566,-0.47212 -0.68478,-0.99542 -0.68478,-9.15962 0,-7.84158 0.0594,-8.71836 0.62985,-9.28886 0.59204,-0.59214 2.25651,-0.63563 27.72558,-0.72452 27.02365,-0.0943 27.09821,-0.0926 28.03334,0.64296 l 0.93761,0.73753 v 8.36257 c 0,6.99782 -0.0896,8.49052 -0.54917,9.14662 l -0.54917,0.78405 h -27.42923 c -23.13237,0 -27.53651,-0.0784 -28.11403,-0.50073 z m 54.79922,-0.754 c 0.77048,-0.53967 0.78405,-0.6857 0.78405,-8.44147 0,-6.70444 -0.0834,-7.97573 -0.55437,-8.44666 -0.49412,-0.49412 -3.43324,-0.55436 -27.04791,-0.55436 -24.15747,0 -26.55044,0.0515 -27.13869,0.58384 -0.58716,0.53138 -0.64514,1.27033 -0.64514,8.22285 0,7.80024 0.10632,8.47383 1.41111,8.94015 0.29104,0.10402 12.20166,0.20165 26.46803,0.21697 22.93553,0.0246 26.02965,-0.0357 26.72292,-0.52132 z m -51.54465,-2.50824 c -0.12935,-0.12934 -0.23519,-2.90747 -0.23519,-6.17361 v -5.93842 h 24.87083 24.87084 v 6.17361 6.17361 h -24.63565 c -13.54961,0 -24.74148,-0.10583 -24.87083,-0.23519 z m 48.80092,-5.93842 v -5.11528 h -23.98889 -23.98888 v 5.11528 5.11528 h 23.98888 23.98889 z m -25.75278,-11.81806 c -0.65731,-0.65731 -0.70555,-1.17592 -0.70555,-7.58472 v -6.87916 h -22.02861 -22.0286 l -0.54918,-0.78406 c -0.74906,-1.06943 -0.68939,-2.25072 0.15639,-3.0965 0.69148,-0.69148 1.17593,-0.70556 24.28699,-0.70556 22.39728,0 23.61075,0.0324 24.16528,0.64514 0.50998,0.56353 0.58384,1.74361 0.58384,9.32861 0,8.57333 -0.01,8.69044 -0.78405,9.23264 -1.06943,0.74906 -2.25072,0.6894 -3.09651,-0.15639 z m 2.62583,-1.13683 c 0.4544,-0.64874 0.54917,-2.05297 0.54917,-8.13708 0,-4.39399 -0.14696,-7.62762 -0.36518,-8.03539 -0.35538,-0.66403 -0.9894,-0.68236 -23.59292,-0.68236 -20.76286,0 -23.27693,0.0593 -23.69144,0.55873 -0.33648,0.40544 -0.36199,0.72001 -0.093,1.14653 0.33858,0.53682 2.30225,0.59567 22.64552,0.67862 l 22.27478,0.0908 v 7.15876 c 0,7.17938 0.13263,8.00543 1.28528,8.00543 0.24123,0 0.68573,-0.35283 0.98777,-0.78406 z m -46.72305,-28.394 c -1.92636,-0.70831 -2.35861,-2.75848 -0.83436,-3.95745 0.91743,-0.72165 1.21099,-0.73116 22.57777,-0.73116 h 21.64826 v -6.62428 c 0,-7.51598 0.18646,-8.19239 2.25838,-8.19239 2.29187,0 2.35145,0.2674 2.24581,10.07867 l -0.0945,8.77452 -0.88194,0.44598 c -0.68513,0.34646 -5.95978,0.44093 -23.63611,0.42334 -12.51479,-0.0125 -22.99229,-0.11021 -23.28334,-0.21723 z m 46.72305,-1.59211 c 0.45307,-0.64684 0.54917,-2.03185 0.54917,-7.91453 0,-7.38321 -0.23195,-8.9403 -1.33182,-8.9403 -1.37746,0 -1.4904,0.59347 -1.4904,7.83166 v 6.985 H 133.5516 c -19.55091,0 -22.08565,0.0622 -22.57778,0.55437 -0.3049,0.3049 -0.55436,0.69043 -0.55436,0.85674 0,0.16631 0.24946,0.55185 0.55436,0.85675 0.49258,0.49257 3.10522,0.55437 23.43972,0.55437 h 22.88535 z m -7.90844,-18.66391 c -1.25621,-0.57818 -2.39666,-1.23351 -2.53435,-1.45629 -0.13768,-0.22278 -0.35544,-1.16929 -0.48391,-2.10335 -0.26076,-1.89594 -0.8254,-2.3924 -2.72101,-2.3924 -1.62904,0 -2.17972,-0.52315 -3.238,-3.07617 -1.17027,-2.82318 -1.14539,-3.68623 0.14877,-5.16021 0.58209,-0.66295 1.05834,-1.40158 1.05834,-1.64139 0,-0.23982 -0.47625,-0.97844 -1.05834,-1.6414 -1.29416,-1.47397 -1.31904,-2.33703 -0.14877,-5.160202 1.05828,-2.55302 1.60896,-3.07618 3.238,-3.07618 1.90747,0 2.45984,-0.49351 2.72707,-2.43643 0.31304,-2.27611 0.63141,-2.63111 3.32855,-3.71153 2.86289,-1.14682 3.16924,-1.13718 4.78988,0.15074 0.73245,0.58208 1.55734,1.05833 1.83308,1.05833 0.27574,0 1.12033,-0.49743 1.87688,-1.10541 1.57573,-1.26629 2.12765,-1.24583 5.38253,0.1995 2.11744,0.94025 2.72004,1.74849 2.73096,3.66291 0.008,1.45878 0.42731,1.8285 2.43115,2.14526 2.16276,0.34189 2.4835,0.63217 3.50326,3.17048 1.04972,2.612892 0.97806,3.695432 -0.35441,5.353502 l -1.11737,1.39043 1.11737,1.39042 c 1.37186,1.7071 1.41751,2.84389 0.22351,5.56688 -1.04841,2.39095 -1.63835,2.92047 -3.25369,2.92047 -1.88259,0 -2.55445,0.53554 -2.56042,2.04089 -0.009,2.16673 -0.63583,2.92275 -3.34619,4.03325 -2.71833,1.11377 -3.47112,1.07603 -5.05082,-0.2532 -1.34727,-1.13365 -1.79669,-1.11046 -3.41584,0.17629 -1.63007,1.29541 -2.2046,1.29032 -5.10623,-0.0452 z m 4.57706,-1.01315 c 1.73261,-1.37225 3.04018,-1.36872 4.77873,0.0129 0.74139,0.58918 1.51728,1.00348 1.7242,0.92066 0.20693,-0.0828 1.09061,-0.43075 1.96374,-0.77318 2.24123,-0.87899 2.81822,-1.47667 2.84701,-2.94908 0.0444,-2.27202 0.37131,-2.64535 2.65487,-3.03213 2.07142,-0.35084 2.08809,-0.36341 3.04165,-2.29305 1.21386,-2.45639 1.20332,-3.03224 -0.0867,-4.73715 -1.30962,-1.73084 -1.30846,-2.2065 0.01,-4.02631 1.28822,-1.77833 1.29484,-2.17807 0.0769,-4.639622 -0.94186,-1.90353 -0.9949,-1.94482 -2.99944,-2.33462 -1.12235,-0.21824 -2.13315,-0.48933 -2.24623,-0.60241 -0.11308,-0.11308 -0.28712,-0.9675 -0.38676,-1.89872 -0.0996,-0.93121 -0.33492,-1.88714 -0.52285,-2.12427 -0.36467,-0.46017 -4.0003,-2.21468 -4.58917,-2.21468 -0.19347,0 -0.89418,0.47625 -1.55714,1.05833 -0.78182,0.68646 -1.58757,1.05834 -2.29305,1.05834 -0.70549,0 -1.51123,-0.37188 -2.29306,-1.05834 -0.66296,-0.58208 -1.36209,-1.05833 -1.55362,-1.05833 -0.19154,0 -1.36674,0.4618 -2.61155,1.02623 -2.11164,0.95746 -2.27735,1.11703 -2.47297,2.38125 -0.46057,2.97661 -0.55142,3.08796 -2.84056,3.48137 -2.27661,0.39125 -2.58533,0.7335 -3.71533,4.118962 -0.41513,1.24373 -0.38282,1.36707 0.67329,2.56992 1.42432,1.6222 1.4252,2.81168 0.004,4.53661 -1.04705,1.27025 -1.08293,1.41086 -0.67329,2.63802 1.11608,3.34346 1.45889,3.73645 3.54507,4.06407 2.37103,0.37235 2.81896,0.70944 2.82515,2.12607 0.01,2.22893 0.35239,2.72397 2.60423,3.76228 1.1844,0.54612 2.28935,1.0047 2.45546,1.01908 0.16594,0.0144 0.90316,-0.45011 1.6381,-1.0322 z m -3.43861,-2.55764 c -0.1925,-0.24253 -0.5452,-1.04676 -0.78379,-1.78717 -0.55711,-1.72886 -2.46473,-3.63396 -3.95884,-3.95359 -0.64205,-0.13735 -1.36581,-0.40959 -1.60834,-0.60497 -0.64896,-0.52279 -0.53758,-2.04685 0.26458,-3.62024 0.38805,-0.76115 0.70555,-1.79302 0.70555,-2.29305 0,-0.50004 -0.3175,-1.53191 -0.70555,-2.29306 -0.38806,-0.76115 -0.70556,-1.89984 -0.70556,-2.53044 0,-1.025332 0.13985,-1.184802 1.32292,-1.508582 2.22344,-0.60851 3.46816,-1.59976 4.29833,-3.42303 1.21456,-2.66748 1.28304,-2.76153 2.09897,-2.88271 0.42295,-0.0628 1.44904,0.215 2.28021,0.61736 1.90131,0.92041 3.60667,0.92868 5.08935,0.0247 1.89957,-1.15817 3.96022,-0.71926 3.96022,0.84351 0,1.77818 2.47086,4.32242 4.62576,4.76315 1.74236,0.35635 2.12243,1.678452 1.03747,3.608882 -1.03692,1.84496 -1.04378,3.70329 -0.0204,5.52416 0.55629,0.98978 0.72902,1.70709 0.56676,2.35359 -0.23807,0.94855 -0.36231,1.03294 -2.07334,1.40835 -1.50644,0.33052 -3.72515,2.52592 -3.99239,3.95041 -0.42943,2.28907 -1.94327,2.85692 -4.10408,1.53947 -0.64608,-0.39392 -1.77686,-0.70424 -2.56617,-0.70424 -0.7893,0 -1.92008,0.31032 -2.56616,0.70424 -1.31356,0.80088 -2.65054,0.91207 -3.1655,0.26326 z m 2.90944,-1.32291 c 1.80421,-0.91984 4.21358,-0.91082 5.95455,0.0223 1.70723,0.91502 2.18224,0.73173 2.49891,-0.96425 0.32927,-1.76346 2.8137,-4.21438 4.61444,-4.5522 1.60671,-0.30142 1.80333,-0.81257 0.88928,-2.31186 -0.98569,-1.6168 -0.98448,-4.60228 0.002,-6.44399 0.40184,-0.74975 0.60028,-1.47522 0.44097,-1.61216 -0.15931,-0.136942 -1.04264,-0.526062 -1.96296,-0.864722 -1.94179,-0.71454 -3.68459,-2.61188 -4.0145,-4.3705 -0.2869,-1.52926 -0.718,-1.65983 -2.62452,-0.79493 -2.02005,0.9164 -3.95742,0.9115 -5.87102,-0.0149 -1.71389,-0.82975 -2.57345,-0.69809 -2.57345,0.39419 0,1.85132 -2.55475,4.66509 -4.6481,5.11937 -1.59468,0.34606 -1.7517,0.746672 -0.87504,2.232502 1.02221,1.73251 1.02221,4.71752 0,6.45003 -0.41188,0.69809 -0.64736,1.41671 -0.52328,1.59693 0.12407,0.18023 0.88284,0.51954 1.68615,0.75404 1.67264,0.48825 3.87145,2.68722 4.20439,4.20471 0.48323,2.20241 0.62965,2.2628 2.80171,1.15542 z m 1.41111,-3.15301 c -4.06677,-0.98652 -6.92125,-4.89638 -6.39227,-8.75567 0.26993,-1.96938 0.92702,-3.19278 2.57631,-4.796722 2.58406,-2.51301 6.33963,-2.87659 9.43519,-0.91345 2.31867,1.47046 3.49309,3.444792 3.66619,6.163312 0.12261,1.92564 0.009,2.46461 -0.85881,4.05824 -1.76818,3.24875 -5.26664,5.01083 -8.42661,4.24429 z m 3.70417,-1.46275 c 5.41406,-2.4545 6.16031,-8.28267 1.51428,-11.826312 -2.22033,-1.6935 -3.94947,-1.85922 -6.38781,-0.61221 -2.78733,1.425492 -4.1223,3.388092 -4.1223,6.060362 0,1.62026 0.19235,2.28166 1.01724,3.49773 1.04476,1.54021 2.66617,2.75207 4.36757,3.26437 1.46593,0.44139 1.88998,0.39631 3.61102,-0.38394 z m -5.3188,-3.11822 c -0.91632,-0.91631 -1.0312,-1.27304 -1.0312,-3.20213 0,-1.92909 0.11488,-2.28582 1.0312,-3.20214 0.87155,-0.87155 1.31119,-1.0312 2.83974,-1.0312 3.08621,0 4.59573,1.39049 4.59573,4.23334 0,2.84285 -1.50952,4.23333 -4.59573,4.23333 -1.52855,0 -1.96819,-0.15965 -2.83974,-1.0312 z m 4.77383,-0.24627 c 0.78476,-0.30114 1.6033,-1.98956 1.6033,-3.30716 0,-2.61228 -3.80229,-3.90265 -5.66312,-1.92187 -1.91713,2.04068 -0.56119,5.44817 2.16799,5.44817 0.72642,0 1.57774,-0.0986 1.89183,-0.21914 z M 47.730331,119.80755 c -1.2419,-0.75723 -2.3817,-2.61704 -2.0822,-3.39752 0.11781,-0.307 0.70309,-0.49732 1.52937,-0.49732 1.04974,0 1.41366,0.17125 1.68677,0.79375 0.40014,0.91205 2.0467,1.25721 2.84336,0.59604 0.74379,-0.61728 0.0519,-1.28486 -1.62527,-1.56822 -4.24901,-0.71787 -5.67365,-5.06716 -2.19975,-6.71564 2.88619,-1.36958 6.71757,0.0216 6.89866,2.50488 0.0714,0.97959 -0.007,1.0438 -1.39388,1.14482 -1.21023,0.0881 -1.50885,-0.0168 -1.69227,-0.59468 -0.23715,-0.74721 -1.02279,-1.05618 -2.05607,-0.8086 -1.13362,0.27161 -0.41802,0.90732 1.73514,1.54141 2.63889,0.77714 3.75536,1.88632 3.75536,3.73085 0,0.74726 -0.19317,1.71962 -0.42928,2.16078 -0.93492,1.74692 -4.89155,2.37672 -6.96994,1.10945 z m 4.83356,-0.82356 c 0.48507,-0.24535 1.08684,-0.87341 1.33727,-1.39568 0.38195,-0.79658 0.36817,-1.11812 -0.0855,-1.99543 -0.43877,-0.84849 -1.02396,-1.19991 -3.10115,-1.86231 -2.33387,-0.74426 -2.57063,-0.9067 -2.67678,-1.83653 -0.14301,-1.25283 0.37037,-1.61333 2.30756,-1.62037 1.0763,-0.004 1.68271,0.2062 2.20114,0.76267 0.39357,0.42244 0.83631,0.64706 0.98388,0.49916 0.14757,-0.14791 -0.1771,-0.6523 -0.7215,-1.12086 -1.39129,-1.19748 -3.81874,-1.19073 -5.02345,0.014 -0.47625,0.47625 -0.86591,1.1024 -0.86591,1.39144 0,1.07025 1.57904,2.3517 3.5258,2.86131 2.73742,0.7166 3.51743,1.94922 2.11865,3.348 -1.36676,1.36676 -4.93889,0.55028 -4.93889,-1.12888 0,-0.30364 -0.10794,-0.3154 -0.38174,-0.0416 -0.47934,0.47935 0.20423,1.67636 1.24646,2.1827 1.02166,0.49635 3.03528,0.46788 4.07417,-0.0576 z m 5.99723,0.89307 c -1.58738,-0.85515 -2.82223,-3.20715 -2.82223,-5.37546 0,-2.21963 1.2441,-4.59096 2.82223,-5.37932 2.67079,-1.33421 6.10533,-0.44251 7.0464,1.82944 0.52898,1.27707 0.312,1.61088 -1.26224,1.94192 -0.91896,0.19325 -1.18967,0.0858 -1.68383,-0.66838 -0.66408,-1.01353 -2.32431,-1.23426 -3.01588,-0.40097 -0.5466,0.65861 -0.87311,2.77132 -0.59781,3.86821 0.54154,2.15766 2.66942,2.695 3.6749,0.92799 0.65164,-1.14517 0.96348,-1.24058 2.34188,-0.71651 1.2463,0.47384 1.15444,1.51069 -0.27169,3.06687 -1.0217,1.11487 -1.42808,1.30282 -3.08681,1.42764 -1.4095,0.10606 -2.23385,-0.0306 -3.14492,-0.52143 z m 4.38817,-0.84372 c 0.49148,-0.22394 1.12798,-0.76487 1.41445,-1.20207 0.4563,-0.6964 0.45691,-0.81946 0.005,-0.99289 -0.28374,-0.10889 -0.5159,-0.0442 -0.5159,0.14373 0,0.18794 -0.3175,0.65921 -0.70555,1.04726 -0.96615,0.96615 -2.88138,0.92428 -4.05909,-0.0887 -1.55744,-1.33965 -1.6493,-5.49176 -0.15457,-6.98649 0.94007,-0.94007 3.128,-0.91002 4.36105,0.0599 1.28622,1.01173 1.69303,0.47022 0.4503,-0.5994 -1.92958,-1.66079 -5.40104,-0.6957 -6.43975,1.7903 -1.79124,4.28702 1.76885,8.59409 5.64412,6.8284 z m 3.02016,0.87542 c 0,-0.47788 3.96351,-10.53666 4.327,-10.98125 0.21665,-0.26499 0.90946,-0.41402 1.64003,-0.35278 l 1.26491,0.10603 2.17633,5.29167 c 1.19698,2.91042 2.18917,5.4901 2.20486,5.73264 0.0189,0.29237 -0.5126,0.44097 -1.57732,0.44097 -1.4671,0 -1.63772,-0.0914 -1.97478,-1.05833 -0.34912,-1.00147 -0.47232,-1.05834 -2.29306,-1.05834 -1.82074,0 -1.94394,0.0569 -2.29305,1.05834 -0.33458,0.95978 -0.51356,1.05833 -1.92193,1.05833 -0.85414,0 -1.55299,-0.10677 -1.55299,-0.23728 z m 2.6231,-1.703 0.5159,-1.23472 h 2.641 2.64099 l 0.44649,1.23472 c 0.24556,0.6791 0.66341,1.23473 0.92855,1.23473 0.58454,0 0.55521,-0.0995 -1.6257,-5.51292 -2.3027,-5.71574 -2.54448,-5.71859 -4.72026,-0.0558 -0.91587,2.38368 -1.76629,4.61178 -1.88983,4.95132 -0.43005,1.18201 0.54853,0.6136 1.06286,-0.61736 z m 1.25745,-2.52663 c 0,-0.32249 0.26712,-1.43374 0.5936,-2.46944 0.80555,-2.55552 1.58157,-2.53414 2.55606,0.0704 1.08249,2.89321 1.04515,2.98538 -1.20938,2.98538 -1.57361,0 -1.94028,-0.11081 -1.94028,-0.58636 z m 2.44465,-0.91295 c -0.0137,-0.24253 -0.14585,-0.75036 -0.29381,-1.12849 -0.23707,-0.6059 -0.31571,-0.55355 -0.66241,0.44097 -0.35483,1.0179 -0.32604,1.12849 0.29382,1.12849 0.37796,0 0.67604,-0.19843 0.6624,-0.44097 z m 5.7487,-0.35278 0.0969,-5.73264 1.5875,-0.11529 c 3.16387,-0.22977 5.3347,0.26416 6.56406,1.49352 2.09698,2.09698 2.07901,6.80621 -0.034,8.91926 l -1.1678,1.16779 h -3.57179 -3.57179 z m 7.01423,4.11063 c 1.89081,-1.71116 2.30731,-4.81901 0.92142,-6.87554 -1.08672,-1.61259 -2.14153,-2.07442 -4.75191,-2.08058 l -2.20486,-0.005 v 4.98528 4.98528 l 2.64784,-0.16993 c 1.93204,-0.12399 2.84781,-0.35088 3.38751,-0.83931 z m -4.97702,-4.02243 v -4.23334 l 1.14653,0.002 c 2.27219,0.004 3.69993,0.63644 4.11335,1.82237 0.52636,1.50993 0.48248,3.60843 -0.10486,5.01411 -0.5163,1.23569 -1.47202,1.62821 -3.9644,1.62821 h -1.19062 z m 3.88056,2.46944 c 0.5174,-0.51741 0.70555,-1.17592 0.70555,-2.46944 0,-2.18912 -0.82719,-3.175 -2.66393,-3.175 h -1.25283 l 0.0814,3.175 0.0814,3.175 h 1.17139 c 0.70103,0 1.45472,-0.28332 1.87696,-0.70556 z m 3.88055,2.74864 c 0,-0.2345 0.91281,-2.78077 2.02847,-5.65838 1.65328,-4.26429 2.17529,-5.26914 2.82222,-5.43272 1.93451,-0.48913 2.27123,-0.0763 4.42067,5.4203 1.12169,2.86837 2.0345,5.41365 2.02848,5.65619 -0.007,0.2824 -0.55401,0.44097 -1.52111,0.44097 -1.35399,0 -1.55147,-0.10944 -1.90963,-1.05833 -0.37726,-0.99946 -0.50756,-1.05834 -2.34237,-1.05834 -1.87193,0 -1.95138,0.0387 -2.17534,1.05834 -0.21552,0.98126 -0.34602,1.05833 -1.79192,1.05833 -0.98389,0 -1.55947,-0.15736 -1.55947,-0.42636 z m 2.51748,-1.51392 0.44648,-1.23472 h 2.68048 2.68049 l 0.44648,1.23472 c 0.24557,0.6791 0.67201,1.23473 0.94767,1.23473 0.5415,0 0.63465,0.28868 -2.13426,-6.61459 -1.8348,-4.57441 -2.12064,-4.48333 -4.41612,1.4071 -1.001,2.56866 -1.8947,4.79116 -1.986,4.93889 -0.0913,0.14773 0.0712,0.2686 0.36115,0.2686 0.28993,0 0.72806,-0.55563 0.97363,-1.23473 z m 1.0103,-2.34503 c 0,-0.22261 0.33877,-1.33386 0.75282,-2.46944 0.95271,-2.61289 1.69276,-2.72665 2.53062,-0.389 0.33033,0.92163 0.59982,2.03288 0.59886,2.46945 -0.002,0.72672 -0.16559,0.79375 -1.94202,0.79375 -1.22444,0 -1.94028,-0.14933 -1.94028,-0.40476 z m 2.62578,-1.44733 c -0.27652,-0.89958 -0.44975,-1.15355 -0.64168,-0.94074 -0.0729,0.0808 -0.24236,0.50418 -0.37655,0.94074 -0.20025,0.65147 -0.10899,0.79375 0.50911,0.79375 0.61811,0 0.70937,-0.14228 0.50912,-0.79375 z"
       id="path24" />
  </g>
</svg>
