<?xml version="1.0" encoding="iso-8859-1"?>
<!-- Generator: Adobe Illustrator 19.0.0, SVG Export Plug-In . SVG Version: 6.00 Build 0)  -->
<svg version="1.1" id="Layer_1" xmlns="http://www.w3.org/2000/svg" xmlns:xlink="http://www.w3.org/1999/xlink" x="0px" y="0px"
	 viewBox="0 0 218.207 218.207" style="enable-background:new 0 0 218.207 218.207;" xml:space="preserve">
<g>
	<g>
		<g>
			<path d="M194.829,0H23.38c-2.154,0-3.897,1.743-3.897,3.897V214.31c0,2.154,1.743,3.897,3.897,3.897h171.448
				c2.154,0,3.897-1.743,3.897-3.897V3.897C198.725,1.743,196.982,0,194.829,0z M190.932,210.414H27.277V7.793h163.655V210.414z"/>
			<path d="M58.448,183.138h101.31c2.154,0,3.897-1.743,3.897-3.897v-11.69c0-0.095-0.047-0.175-0.054-0.268
				c-0.006-0.083,0.031-0.162,0.02-0.245l-7.759-58.191V42.862c0-2.154-1.743-3.897-3.897-3.897H66.242
				c-2.154,0-3.897,1.743-3.897,3.897v65.985l-7.759,58.191c-0.011,0.083,0.025,0.162,0.02,0.245
				c-0.007,0.094-0.054,0.173-0.054,0.268v11.69C54.553,181.395,56.295,183.138,58.448,183.138z M70.139,46.759h77.931v58.448
				H70.139V46.759z M69.656,113h78.897l6.754,50.655H62.901L69.656,113z M62.346,171.448h93.517v3.897H62.346V171.448z"/>
		</g>
	</g>
</g>
<g>
</g>
<g>
</g>
<g>
</g>
<g>
</g>
<g>
</g>
<g>
</g>
<g>
</g>
<g>
</g>
<g>
</g>
<g>
</g>
<g>
</g>
<g>
</g>
<g>
</g>
<g>
</g>
<g>
</g>
</svg>
