<?xml version="1.0" encoding="UTF-8" standalone="no"?>
<svg
   xmlns:dc="http://purl.org/dc/elements/1.1/"
   xmlns:cc="http://creativecommons.org/ns#"
   xmlns:rdf="http://www.w3.org/1999/02/22-rdf-syntax-ns#"
   xmlns:svg="http://www.w3.org/2000/svg"
   xmlns="http://www.w3.org/2000/svg"
   xmlns:sodipodi="http://sodipodi.sourceforge.net/DTD/sodipodi-0.dtd"
   xmlns:inkscape="http://www.inkscape.org/namespaces/inkscape"
   width="82.550003mm"
   height="65.352081mm"
   viewBox="0 0 82.550003 65.352081"
   version="1.1"
   id="svg8"
   inkscape:version="1.0.1 (3bc2e813f5, 2020-09-07)"
   sodipodi:docname="1.svg">
  <defs
     id="defs2" />
  <sodipodi:namedview
     id="base"
     pagecolor="#ffffff"
     bordercolor="#666666"
     borderopacity="1.0"
     inkscape:pageopacity="0.0"
     inkscape:pageshadow="2"
     inkscape:zoom="1.4"
     inkscape:cx="109.41911"
     inkscape:cy="150.09709"
     inkscape:document-units="mm"
     inkscape:current-layer="layer1"
     inkscape:document-rotation="0"
     showgrid="false"
     fit-margin-top="0"
     fit-margin-left="0"
     fit-margin-right="0"
     fit-margin-bottom="0"
     inkscape:window-width="1254"
     inkscape:window-height="1040"
     inkscape:window-x="156"
     inkscape:window-y="0"
     inkscape:window-maximized="0" />
  <metadata
     id="metadata5">
    <rdf:RDF>
      <cc:Work
         rdf:about="">
        <dc:format>image/svg+xml</dc:format>
        <dc:type
           rdf:resource="http://purl.org/dc/dcmitype/StillImage" />
        <dc:title></dc:title>
      </cc:Work>
    </rdf:RDF>
  </metadata>
  <g
     inkscape:label="Ebene 1"
     inkscape:groupmode="layer"
     id="layer1"
     transform="translate(-66.070236,-124.56206)">
    <path
       style="fill:#000000;stroke-width:0.264583"
       d="m 93.112754,183.63029 c 0.07152,-1.89766 0.121656,-2.05683 0.672587,-2.13507 0.430877,-0.0612 0.595313,-0.26217 0.595313,-0.72761 0,-0.64204 0.0046,-0.64305 2.910416,-0.64305 h 2.91042 v -1.45521 -1.45521 H 90.14732 80.093153 v -0.66146 c 0,-0.52916 -0.132291,-0.66146 -0.661458,-0.66146 h -0.661459 v -22.05808 -22.05809 l 0.992188,-0.164 c 1.295779,-0.21418 53.869846,-0.21418 55.165626,0 l 0.99219,0.164 v 22.05809 22.05808 h -0.66146 c -0.52917,0 -0.66146,0.1323 -0.66146,0.66146 v 0.66146 h -10.05417 -10.05416 v 1.45521 1.45521 h 2.91041 2.91042 v 0.79375 c 0,0.67027 0.1029,0.79375 0.66146,0.79375 0.64676,0 0.66146,0.0441 0.66146,1.98437 v 1.98438 H 107.33411 93.035478 Z m 26.105666,0.82682 c 0.78661,-0.15732 0.82682,-0.2264 0.82682,-1.42059 0,-1.24494 -0.008,-1.25657 -0.99219,-1.41922 -0.5457,-0.0902 -5.81422,-0.164 -11.70781,-0.164 -5.8936,0 -11.162112,0.0738 -11.707815,0.164 l -0.992188,0.16399 v 1.42059 1.42059 h 11.873173 c 6.53025,0 12.24525,-0.0744 12.70001,-0.16536 z m -7.63985,-5.78776 v -1.45521 h -4.23333 -4.23334 v 1.45521 1.45521 h 4.23334 4.23333 z m 21.76198,-4.27086 0.99219,-0.164 v -19.94142 -19.94143 h -0.66146 c -0.52917,0 -0.66146,-0.13229 -0.66146,-0.66146 v -0.66145 H 107.34524 81.680653 v 0.66145 c 0,0.52917 -0.132291,0.66146 -0.661458,0.66146 h -0.661458 v 19.95764 19.95764 l 0.595312,0.11466 c 0.947301,0.18246 51.287631,0.1987 52.387501,0.0169 z m -7.08963,-1.27336 c -0.47785,-0.47786 -0.64943,-0.9354 -0.64943,-1.73182 0,-0.79642 0.17158,-1.25397 0.64943,-1.73182 0.47785,-0.47785 0.9354,-0.64943 1.73182,-0.64943 0.79642,0 1.25396,0.17158 1.73182,0.64943 0.47785,0.47785 0.64943,0.9354 0.64943,1.73182 0,0.79642 -0.17158,1.25396 -0.64943,1.73182 -0.47786,0.47785 -0.9354,0.64943 -1.73182,0.64943 -0.79642,0 -1.25397,-0.17158 -1.73182,-0.64943 z m -41.741137,-5.87005 c -0.100813,-0.10082 -0.183296,-0.46111 -0.183296,-0.80066 0,-0.48213 -0.144891,-0.61736 -0.661459,-0.61736 H 83.00357 l 0.0029,-13.29531 c 0.0016,-7.31243 0.07671,-13.7418 0.16691,-14.2875 0.135733,-0.82119 0.272034,-0.99219 0.790837,-0.99219 0.49224,0 0.62684,-0.14203 0.62684,-0.66146 v -0.66146 h 22.886463 22.88646 v 0.66146 c 0,0.53192 0.13159,0.66146 0.67192,0.66146 h 0.67193 l -0.0766,14.79481 c -0.0421,8.13715 -0.17579,14.89394 -0.29701,15.0151 -0.26487,0.26476 -46.56175,0.4458 -46.82444,0.18311 z M 128.77649,152.21102 V 138.58498 H 107.34524 85.913987 v 13.62604 13.62604 h 21.431253 21.43125 z m -24.39898,7.36275 c -3.54025,-3.13077 -8.147665,-7.61651 -8.292807,-8.07381 -0.198552,-0.62558 0.475818,-1.70291 1.212273,-1.93665 0.728988,-0.23137 1.104381,0.0485 5.116914,3.81424 1.87166,1.75656 3.50334,3.13175 3.62595,3.05597 0.12261,-0.0758 2.27254,-2.7652 4.77762,-5.97649 2.50508,-3.2113 4.82735,-5.96295 5.1606,-6.11479 0.46476,-0.21176 0.75786,-0.17652 1.25815,0.15128 0.90812,0.59503 1.09627,1.37828 0.53815,2.24035 -1.10738,1.71048 -10.53525,13.58512 -10.9711,13.81837 -0.75972,0.4066 -0.94323,0.33257 -2.42575,-0.97847 z"
       id="path24" />
  </g>
</svg>
