<?xml version="1.0" standalone="no"?>
<!DOCTYPE svg PUBLIC "-//W3C//DTD SVG 20010904//EN"
 "http://www.w3.org/TR/2001/REC-SVG-20010904/DTD/svg10.dtd">
<svg version="1.0" xmlns="http://www.w3.org/2000/svg"
 width="704.000000pt" height="1280.000000pt" viewBox="0 0 704.000000 1280.000000"
 preserveAspectRatio="xMidYMid meet">
<metadata>
Created by potrace 1.15, written by Peter Selinger 2001-2017
</metadata>
<g transform="translate(0.000000,1280.000000) scale(0.100000,-0.100000)"
fill="#000000" stroke="none">
<path d="M3310 12794 c-19 -2 -84 -9 -144 -14 -399 -39 -785 -150 -1162 -336
-1054 -518 -1793 -1545 -1963 -2729 -86 -592 -30 -1190 161 -1744 172 -499
413 -898 798 -1320 293 -323 670 -898 915 -1396 103 -210 155 -342 191 -484
l24 -94 0 -858 0 -858 52 -3 51 -3 43 -165 c38 -141 44 -179 44 -265 l0 -101
33 3 c17 2 286 26 597 53 311 28 612 54 670 60 58 6 310 28 560 50 250 22 476
43 501 46 l45 5 44 165 45 164 47 0 48 0 0 854 0 853 24 94 c78 308 326 789
679 1319 158 237 288 408 427 561 199 218 323 380 453 590 606 981 714 2212
290 3294 -60 152 -192 418 -277 558 -354 582 -872 1058 -1471 1352 -370 181
-722 284 -1150 335 -92 11 -512 21 -575 14z m555 -224 c884 -103 1652 -528
2219 -1231 37 -46 114 -154 171 -239 322 -484 514 -1034 566 -1622 15 -167 6
-602 -15 -753 -36 -256 -99 -514 -180 -738 -160 -441 -388 -811 -732 -1188
-141 -155 -195 -223 -328 -409 -330 -462 -661 -1055 -786 -1407 -79 -221 -73
-148 -77 -1018 l-4 -780 -1184 -3 -1185 -2 0 779 c0 848 2 813 -58 991 -171
501 -730 1423 -1113 1835 -172 185 -271 311 -392 496 -285 438 -457 905 -534
1449 -25 178 -25 720 0 899 79 553 258 1029 552 1471 291 437 651 779 1100
1045 384 227 858 382 1301 425 60 5 127 12 149 14 68 7 435 -3 530 -14z"/>
<path d="M4555 2539 c-81 -9 -210 -20 -1425 -129 -371 -33 -701 -63 -732 -66
l-58 -6 -50 -89 -51 -88 46 -81 c26 -44 50 -82 55 -85 4 -2 234 16 511 40 592
53 1040 93 1506 135 186 17 340 34 344 38 4 4 28 44 54 89 l47 82 -49 83 c-56
95 -51 93 -198 77z"/>
<path d="M4465 2093 c-137 -12 -504 -45 -815 -73 -311 -28 -713 -64 -895 -80
-181 -16 -354 -32 -382 -36 l-53 -5 0 -60 c0 -70 -20 -66 216 -44 180 17 573
52 1394 125 612 54 783 70 788 75 2 1 2 29 0 61 l-3 59 -250 -22z"/>
<path d="M4425 1879 c-183 -17 -556 -51 -1590 -143 -432 -39 -491 -47 -503
-63 -7 -10 -31 -50 -53 -89 l-39 -71 46 -82 c26 -45 49 -83 53 -85 3 -2 148 9
321 24 337 31 695 63 1500 135 278 25 512 45 521 45 10 0 37 35 68 90 l52 90
-48 85 -48 84 -45 -1 c-25 0 -130 -9 -235 -19z"/>
<path d="M4605 1459 c-78 -9 -1360 -124 -1935 -174 -390 -35 -350 -24 -350
-95 0 -45 4 -60 14 -60 8 0 162 13 343 30 180 16 582 52 893 80 311 28 688 62
838 75 150 14 281 25 292 25 18 0 20 7 20 65 0 56 -2 65 -17 64 -10 -1 -54 -6
-98 -10z"/>
<path d="M4395 1229 c-263 -25 -1474 -134 -1780 -160 -132 -11 -249 -24 -261
-29 -11 -4 -42 -45 -68 -91 l-46 -82 48 -86 49 -86 39 3 c47 4 1247 111 1709
152 182 17 394 35 471 42 l142 11 51 89 52 88 -48 85 -48 85 -55 -1 c-30 -1
-145 -10 -255 -20z"/>
<path d="M4305 784 c-711 -66 -1921 -174 -1953 -174 l-32 0 0 -67 1 -68 199
-123 c109 -67 203 -122 209 -122 6 0 11 7 11 15 0 13 93 15 780 15 709 0 780
-1 788 -16 5 -9 14 -15 19 -13 5 2 96 58 201 124 l192 120 0 173 0 172 -27 -1
c-16 -1 -190 -16 -388 -35z"/>
<path d="M2960 144 c25 -14 82 -46 127 -71 46 -24 83 -51 83 -59 0 -12 54 -14
350 -14 273 0 350 3 350 13 0 6 56 43 125 80 69 38 125 71 125 73 0 2 -271 4
-602 4 l-603 0 45 -26z"/>
</g>
</svg>
