<?xml version="1.0" standalone="no"?>
<!DOCTYPE svg PUBLIC "-//W3C//DTD SVG 20010904//EN"
 "http://www.w3.org/TR/2001/REC-SVG-20010904/DTD/svg10.dtd">
<svg version="1.0" xmlns="http://www.w3.org/2000/svg"
 width="1280.000000pt" height="697.000000pt" viewBox="0 0 1280.000000 697.000000"
 preserveAspectRatio="xMidYMid meet">
<metadata>
Created by potrace 1.15, written by Peter Selinger 2001-2017
</metadata>
<g transform="translate(0.000000,697.000000) scale(0.100000,-0.100000)"
fill="#000000" stroke="none">
<path d="M270 6962 c0 -5 18 -52 39 -105 l40 -97 -25 0 c-63 0 -154 -65 -174
-124 -21 -66 -91 -522 -85 -559 9 -59 50 -113 108 -142 l51 -25 2172 0 2172 0
144 -127 c228 -203 474 -454 580 -593 204 -268 261 -353 338 -509 98 -199 126
-270 142 -362 16 -93 16 -627 -1 -1364 -14 -624 -26 -1178 -42 -1953 -11 -527
-11 -567 6 -628 34 -127 132 -236 257 -287 50 -21 72 -22 380 -25 275 -3 338
-1 390 13 126 32 224 113 282 235 l31 65 -2 365 c-1 201 -6 590 -12 865 -6
275 -16 700 -21 945 -5 245 -15 682 -21 973 -13 575 -6 761 33 887 38 123 177
398 264 520 270 380 417 539 863 933 l53 47 2172 0 2172 0 51 25 c58 29 99 83
108 142 6 39 -66 507 -86 561 -23 59 -109 121 -171 122 l-27 0 40 97 c21 53
39 100 39 105 0 4 -2758 8 -6130 8 -3371 0 -6130 -4 -6130 -8z"/>
</g>
</svg>
