<?xml version="1.0" standalone="no"?>
<!DOCTYPE svg PUBLIC "-//W3C//DTD SVG 20010904//EN"
 "http://www.w3.org/TR/2001/REC-SVG-20010904/DTD/svg10.dtd">
<svg version="1.0" xmlns="http://www.w3.org/2000/svg"
 width="1250.000000pt" height="1280.000000pt" viewBox="0 0 1250.000000 1280.000000"
 preserveAspectRatio="xMidYMid meet">
<metadata>
Created by potrace 1.15, written by Peter Selinger 2001-2017
</metadata>
<g transform="translate(0.000000,1280.000000) scale(0.100000,-0.100000)"
fill="#000000" stroke="none">
<path d="M0 6400 l0 -6400 6250 0 6250 0 -1 5368 0 5367 -1047 1032 -1047
1033 -5202 0 -5203 0 0 -6400z m9390 3555 l0 -1935 -3140 0 -3140 0 0 1935 0
1935 3140 0 3140 0 0 -1935z m1370 -6450 l0 -2455 -4510 0 -4510 0 0 2455 0
2455 4510 0 4510 0 0 -2455z"/>
<path d="M7210 9955 l0 -1205 695 0 695 0 0 1205 0 1205 -695 0 -695 0 0
-1205z"/>
<path d="M2650 4845 l0 -295 3600 0 3600 0 0 295 0 295 -3600 0 -3600 0 0
-295z"/>
<path d="M2652 3518 l3 -293 3595 0 3595 0 3 293 2 292 -3600 0 -3600 0 2
-292z"/>
<path d="M2650 2110 l0 -290 3600 0 3600 0 0 290 0 290 -3600 0 -3600 0 0
-290z"/>
</g>
</svg>
