<?xml version="1.0" standalone="no"?>
<!DOCTYPE svg PUBLIC "-//W3C//DTD SVG 20010904//EN"
 "http://www.w3.org/TR/2001/REC-SVG-20010904/DTD/svg10.dtd">
<svg version="1.0" xmlns="http://www.w3.org/2000/svg"
 width="888.000000pt" height="1280.000000pt" viewBox="0 0 888.000000 1280.000000"
 preserveAspectRatio="xMidYMid meet">
<metadata>
Created by potrace 1.15, written by Peter Selinger 2001-2017
</metadata>
<g transform="translate(0.000000,1280.000000) scale(0.100000,-0.100000)"
fill="#000000" stroke="none">
<path d="M235 12791 c-82 -20 -162 -87 -206 -171 l-24 -45 0 -6175 0 -6175 27
-50 c32 -60 87 -114 148 -146 l45 -24 4215 0 4215 0 50 27 c60 32 114 87 146
148 l24 45 0 6175 0 6175 -24 45 c-32 61 -86 116 -146 148 l-50 27 -260 3
c-288 3 -298 1 -327 -58 -16 -30 -18 -66 -18 -272 l0 -238 -50 0 -50 0 0 219
c0 216 0 220 -22 235 -20 14 -353 16 -3333 16 -2980 0 -3313 -2 -3333 -16 -22
-15 -22 -19 -22 -235 l0 -219 -50 0 -50 0 0 238 c0 206 -2 242 -18 272 -30 60
-28 60 -462 59 -217 -1 -408 -4 -425 -8z m198 -799 c34 -33 38 -96 7 -135 -41
-52 -136 -44 -165 14 -31 59 -11 119 49 144 39 17 73 10 109 -23z m8121 24
c117 -49 66 -215 -58 -192 -75 14 -104 116 -48 168 15 14 36 28 47 31 11 3 21
5 23 6 1 0 18 -5 36 -13z m-3584 -75 c587 -80 1114 -265 1608 -563 530 -321
986 -764 1325 -1285 544 -837 764 -1827 626 -2823 -90 -655 -380 -1367 -764
-1881 -81 -109 -92 -137 -73 -194 27 -81 106 -118 374 -175 359 -75 497 -148
572 -300 l27 -55 3 -1329 c3 -1495 8 -1384 -74 -1475 -58 -64 -113 -90 -227
-106 -112 -16 -152 -31 -206 -81 -53 -47 -86 -104 -100 -172 -7 -33 -11 -199
-11 -446 0 -334 -2 -399 -16 -440 -22 -64 -100 -147 -166 -177 l-53 -24 -3270
0 -3270 0 -55 26 c-80 37 -115 72 -152 147 l-33 67 -5 1130 c-5 1061 -6 1133
-23 1185 -73 217 -264 386 -482 425 -44 8 -96 14 -115 15 -43 0 -73 20 -89 57
-8 21 -11 194 -9 653 3 717 -4 661 101 730 32 21 180 107 330 191 365 207 407
248 363 352 -7 18 -57 99 -110 180 -325 497 -529 1012 -626 1581 -45 268 -55
395 -55 706 1 306 13 447 61 720 237 1333 1141 2485 2381 3036 375 166 760
274 1158 324 227 28 227 28 580 25 257 -3 350 -7 475 -24z m-4537 -6349 c34
-33 38 -96 7 -135 -41 -52 -136 -44 -165 14 -31 59 -11 119 49 144 39 17 73
10 109 -23z m8121 24 c117 -49 66 -215 -58 -192 -75 14 -104 116 -48 168 15
14 36 28 47 31 11 3 21 5 23 6 1 0 18 -5 36 -13z m-8123 -5185 c41 -41 41
-101 0 -142 -66 -65 -171 -15 -171 81 0 48 47 90 100 90 33 0 48 -6 71 -29z
m8160 0 c65 -66 15 -171 -81 -171 -21 0 -41 9 -61 29 -64 65 -20 171 71 171
33 0 48 -6 71 -29z"/>
<path d="M4095 11675 c-1264 -115 -2383 -840 -3011 -1950 -400 -708 -564
-1559 -458 -2375 134 -1032 677 -1957 1521 -2591 248 -186 581 -372 873 -486
238 -94 412 -145 664 -198 65 -13 120 -26 123 -28 2 -3 -58 -45 -134 -94 -424
-277 -546 -345 -813 -452 -138 -56 -172 -83 -190 -153 -25 -91 16 -186 99
-232 47 -25 59 -27 136 -24 94 3 95 3 95 -72 0 -60 28 -151 77 -250 38 -79 61
-110 132 -181 71 -71 102 -94 181 -132 124 -61 200 -80 325 -80 202 1 362 68
510 214 l70 69 154 -55 c85 -30 156 -57 158 -58 1 -2 -36 -96 -82 -209 -47
-113 -85 -213 -85 -222 0 -9 7 -19 15 -22 8 -3 35 -43 60 -89 89 -163 169
-235 263 -235 55 0 119 33 218 112 195 154 276 172 405 86 59 -39 189 -181
189 -205 0 -10 -24 -13 -85 -13 -118 0 -175 -31 -219 -117 -14 -28 -16 -89
-16 -498 0 -409 2 -470 16 -498 23 -45 53 -76 96 -98 36 -18 77 -19 1226 -19
l1189 0 44 23 c24 13 58 43 74 66 29 42 30 46 33 182 l4 139 -167 0 c-103 0
-175 4 -188 11 -57 29 -75 103 -37 152 30 38 77 47 243 47 l147 0 0 183 c1
352 45 442 338 680 68 55 143 124 167 154 233 285 95 712 -264 817 -33 10 -92
16 -146 16 -211 0 -317 -69 -485 -314 -146 -215 -259 -311 -425 -361 -136 -41
-214 -45 -922 -45 l-673 0 -32 -29 c-31 -28 -33 -33 -33 -100 l0 -71 120 -3
c100 -2 126 -5 155 -23 123 -72 100 -251 -37 -282 l-43 -10 -50 68 c-66 89
-175 191 -236 221 -29 14 -73 25 -109 27 -90 6 -155 -23 -283 -125 -184 -148
-238 -157 -332 -55 -55 58 -111 143 -132 199 -10 27 -3 48 73 231 71 172 87
202 105 202 26 0 46 23 67 78 21 52 21 71 2 92 -13 14 0 52 124 350 113 274
142 336 159 338 28 4 41 22 79 110 37 85 39 99 18 122 -13 15 -13 21 2 58 13
34 14 44 3 57 -18 22 -53 15 -65 -13 -11 -26 -18 -27 -35 -7 -10 12 4 47 77
192 48 98 95 181 103 185 8 3 67 19 130 34 434 102 930 330 1300 597 563 406
1015 958 1283 1567 225 513 329 1003 330 1555 1 260 -12 415 -53 660 -177
1043 -777 1964 -1660 2550 -330 219 -645 368 -1015 480 -461 140 -983 193
-1460 150z m731 -160 c837 -88 1614 -457 2210 -1050 256 -255 446 -501 616
-800 399 -700 556 -1534 442 -2340 -156 -1105 -800 -2068 -1774 -2655 -135
-82 -412 -215 -566 -274 -131 -49 -378 -126 -406 -126 -41 0 324 559 599 918
l95 123 26 -17 c26 -17 26 -17 61 23 26 29 58 95 116 241 l80 201 157 203
c144 184 158 207 158 243 0 34 8 49 55 102 30 33 55 66 55 72 0 5 -16 22 -36
38 l-36 27 -27 -30 c-14 -16 -40 -46 -57 -66 -22 -25 -43 -38 -71 -42 -35 -6
-60 -28 -220 -194 l-180 -187 -174 -100 c-229 -132 -279 -176 -245 -214 9 -10
16 -23 16 -29 0 -6 -87 -92 -192 -191 -488 -454 -856 -750 -1474 -1184 l-41
-28 -84 11 c-540 73 -1094 287 -1559 601 -354 239 -685 563 -940 920 -660 920
-853 2120 -520 3215 144 471 379 903 709 1299 111 134 359 376 501 490 558
447 1221 723 1920 799 177 19 605 20 786 1z m348 -6757 c90 -27 157 -136 141
-229 -28 -163 -233 -229 -348 -111 -45 46 -57 78 -57 149 0 68 32 131 85 163
65 40 113 48 179 28z m-391 -471 c18 -8 50 -34 72 -58 l39 -44 -39 -7 c-22 -4
-116 -10 -210 -14 l-170 -6 55 57 c30 31 69 63 85 71 39 17 127 18 168 1z
m107 -265 c0 -15 -37 -60 -187 -229 -85 -95 -166 -179 -181 -187 -134 -67
-302 33 -301 179 0 58 18 99 68 159 l44 53 216 7 c179 6 274 13 334 25 4 0 7
-2 7 -7z m-1045 -426 c179 -48 323 -191 370 -367 20 -72 19 -202 -1 -270 -63
-213 -243 -359 -464 -375 -361 -28 -638 337 -520 682 54 155 194 286 353 329
67 18 198 19 262 1z m870 -201 c30 -15 45 -34 59 -78 9 -29 -20 -84 -53 -101
-47 -25 -79 -20 -117 18 -53 53 -45 117 19 156 39 24 50 24 92 5z m-1794 -24
c64 -65 20 -171 -71 -171 -33 0 -48 6 -71 29 -23 23 -29 38 -29 71 0 33 6 48
29 71 23 23 38 29 71 29 33 0 48 -6 71 -29z m2029 4 c0 -6 -250 -618 -255
-623 -1 -2 -64 38 -139 88 l-136 90 19 51 c26 67 66 118 107 135 19 8 67 14
109 14 119 0 158 31 211 165 15 39 32 73 38 77 13 9 46 11 46 3z m3217 -686
c61 -23 112 -100 113 -168 0 -52 -37 -118 -83 -149 -87 -58 -215 -23 -258 71
-56 125 24 255 158 257 23 0 54 -5 70 -11z m-2494 -1673 c93 -39 134 -154 88
-244 -23 -46 -46 -67 -94 -87 -141 -59 -288 85 -233 229 37 97 144 143 239
102z"/>
<path d="M4260 9280 c-567 -79 -1035 -472 -1199 -1005 -46 -150 -62 -261 -63
-425 -1 -382 135 -724 396 -997 213 -223 453 -357 762 -424 143 -32 425 -32
568 0 310 67 552 203 768 429 193 204 325 468 373 747 22 128 22 357 0 480
-54 308 -199 580 -424 798 -203 195 -437 320 -709 377 -111 24 -368 34 -472
20z m254 -210 c14 -5 43 -26 66 -46 91 -82 85 -233 -13 -308 -158 -120 -378
27 -323 216 16 56 69 118 116 137 33 13 122 14 154 1z m-921 -511 c46 -13 109
-67 131 -113 35 -75 10 -185 -55 -240 -44 -37 -73 -47 -137 -47 -179 0 -269
223 -139 349 55 53 127 72 200 51z m1808 -1 c133 -39 190 -201 111 -313 -52
-74 -160 -108 -243 -77 -74 28 -128 111 -129 195 0 60 18 103 63 145 57 55
125 72 198 50z m-840 -214 c88 -26 150 -63 215 -128 205 -205 205 -537 0 -742
-193 -193 -479 -193 -672 0 -276 276 -164 749 205 867 71 23 181 24 252 3z
m-904 -850 c175 -139 45 -418 -171 -363 -137 34 -199 198 -119 312 46 66 94
88 180 85 62 -3 76 -7 110 -34z m1788 13 c86 -49 126 -159 91 -252 -33 -86
-134 -143 -226 -129 -50 8 -93 36 -134 87 -58 72 -46 198 26 264 63 58 169 72
243 30z m-894 -522 c103 -68 125 -212 46 -302 -110 -125 -307 -83 -353 75 -17
57 -13 95 17 154 21 41 72 84 116 98 48 16 131 4 174 -25z"/>
<path d="M3598 3491 c-304 -100 -392 -473 -163 -690 164 -155 414 -154 571 4
203 202 146 534 -112 661 -92 46 -205 56 -296 25z m210 -210 c79 -41 116 -106
110 -196 -5 -83 -38 -133 -109 -169 -90 -44 -181 -27 -246 47 -62 71 -68 161
-17 244 53 86 173 120 262 74z"/>
<path d="M7375 4945 c-204 -207 -313 -301 -517 -447 -107 -75 -129 -95 -126
-114 5 -36 241 -317 398 -474 247 -247 415 -345 676 -396 94 -18 468 -38 539
-28 66 8 138 46 169 87 51 67 56 99 56 376 l0 256 -72 72 -72 72 22 23 c66 71
88 225 45 320 -27 60 -94 127 -158 157 -38 19 -67 24 -125 25 -85 0 -142 -20
-202 -73 l-37 -32 -189 185 c-104 102 -195 186 -203 185 -8 0 -99 -87 -204
-194z m913 -245 c53 -32 74 -75 69 -143 -3 -49 -8 -62 -37 -92 -87 -90 -228
-54 -260 67 -35 127 115 237 228 168z"/>
<path d="M1211 4814 c-66 -25 -136 -98 -155 -163 -20 -67 -20 -97 0 -186 40
-184 45 -213 46 -257 1 -34 -4 -54 -18 -69 -18 -21 -24 -21 -175 -15 -143 6
-160 5 -212 -14 -130 -49 -193 -195 -136 -320 46 -101 124 -165 265 -215 92
-32 142 -64 205 -131 55 -59 92 -120 120 -200 18 -50 23 -94 30 -284 15 -436
55 -593 245 -975 137 -275 155 -337 136 -467 -8 -52 -20 -93 -34 -115 -13 -18
-73 -77 -135 -129 -200 -171 -237 -226 -237 -349 0 -115 57 -210 158 -263 41
-21 64 -26 122 -26 111 0 154 26 331 203 145 146 206 191 258 191 14 0 83 -29
153 -64 422 -211 768 -321 1127 -357 225 -22 576 -4 895 47 63 10 124 13 154
9 27 -3 135 -35 240 -71 212 -72 300 -87 383 -64 67 19 127 81 150 157 23 75
22 235 -1 358 -63 333 -183 512 -376 561 -88 22 -184 13 -341 -32 -91 -26
-151 -37 -227 -41 l-103 -6 -67 72 c-89 94 -119 106 -352 136 -674 87 -1145
493 -1267 1093 -24 118 -24 431 0 547 23 110 22 179 -4 233 -28 57 -71 83
-196 121 -55 17 -111 39 -124 50 -32 25 -27 63 18 151 30 59 38 89 41 142 6
99 -15 136 -156 266 -64 59 -191 180 -282 268 -197 192 -234 216 -355 221 -55
2 -94 -2 -124 -13z m184 -103 c72 -33 105 -86 105 -167 0 -131 -142 -214 -260
-154 -104 53 -129 196 -48 279 60 62 129 76 203 42z m-560 -705 c40 -17 75
-68 75 -111 0 -68 -65 -135 -130 -135 -62 0 -130 68 -130 130 0 39 33 92 71
112 41 22 68 23 114 4z m4014 -2551 c63 -53 63 -146 0 -199 -24 -20 -41 -26
-80 -26 -42 0 -55 5 -87 34 -34 32 -37 38 -37 91 0 53 3 59 37 91 32 29 45 34
87 34 38 0 56 -6 80 -25z m-3329 -367 c129 -66 132 -243 5 -315 -111 -63 -252
12 -263 140 -12 144 130 239 258 175z m3423 -162 c38 -16 94 -76 103 -112 12
-49 -2 -121 -31 -160 -97 -127 -295 -76 -321 84 -21 134 122 242 249 188z"/>
<path d="M2516 3265 c-30 -30 -39 -95 -33 -230 15 -321 144 -606 379 -831 130
-125 274 -214 438 -272 159 -56 229 -67 415 -67 160 0 224 8 328 37 35 11 37
13 37 53 0 29 6 47 20 60 27 24 43 80 36 120 -8 40 -57 93 -94 101 -15 3 -40
21 -57 39 l-30 34 -55 -16 c-80 -23 -293 -22 -385 1 -308 80 -546 330 -609
640 l-12 60 -68 12 c-120 23 -198 87 -231 190 -25 78 -48 99 -79 69z"/>
</g>
</svg>
