<?xml version="1.0" standalone="no"?>
<!DOCTYPE svg PUBLIC "-//W3C//DTD SVG 20010904//EN"
 "http://www.w3.org/TR/2001/REC-SVG-20010904/DTD/svg10.dtd">
<svg version="1.0" xmlns="http://www.w3.org/2000/svg"
 width="1006.000000pt" height="1280.000000pt" viewBox="0 0 1006.000000 1280.000000"
 preserveAspectRatio="xMidYMid meet">
<metadata>
Created by potrace 1.15, written by Peter Selinger 2001-2017
</metadata>
<g transform="translate(0.000000,1280.000000) scale(0.100000,-0.100000)"
fill="#000000" stroke="none">
<path d="M1565 12794 c-27 -3 -233 -13 -457 -24 -442 -21 -468 -25 -554 -89
-68 -49 -408 -356 -440 -397 -61 -77 -98 -175 -110 -287 -4 -47 -3 -72 6 -82
8 -10 10 -32 6 -69 -13 -98 8 -151 277 -706 l255 -525 -33 -19 c-54 -31 -69
-70 -62 -157 12 -149 38 -206 150 -334 32 -37 39 -40 83 -40 45 1 63 -8 64
-27 0 -5 -8 -8 -18 -8 -10 0 -41 -7 -69 -15 -49 -15 -50 -15 -69 -77 -21 -70
-25 -209 -6 -244 18 -33 66 -49 110 -36 41 13 62 2 62 -32 0 -55 9 -63 57 -60
26 2 54 6 62 9 12 3 79 -59 222 -203 113 -114 219 -225 236 -247 44 -58 73
-126 73 -169 0 -99 85 -143 126 -64 l16 31 87 -87 87 -87 33 -197 c119 -711
205 -1112 342 -1592 180 -629 360 -1099 671 -1750 l55 -116 -29 -29 c-22 -22
-28 -36 -24 -55 8 -43 -102 -434 -140 -498 -33 -54 -54 -110 -54 -143 0 -9 -3
-19 -7 -22 -11 -11 -43 24 -43 47 0 30 -53 60 -91 52 -24 -5 -30 -2 -35 19 -8
31 -63 49 -100 33 -17 -8 -27 -8 -37 0 -10 8 -59 -4 -197 -48 -102 -33 -191
-60 -198 -60 -8 0 -25 -9 -39 -20 -14 -11 -33 -20 -43 -20 -25 0 -65 -48 -62
-75 2 -17 -3 -24 -22 -29 -33 -8 -69 -74 -54 -99 12 -23 2 -54 -21 -62 -21 -6
-45 -94 -30 -109 15 -16 11 -83 -6 -90 -17 -6 -22 -111 -5 -121 13 -8 13 -102
0 -110 -13 -8 -1 -96 16 -116 18 -20 34 -105 22 -117 -13 -13 10 -104 32 -124
21 -20 44 -93 34 -109 -9 -16 36 -128 50 -123 14 6 46 -57 46 -91 0 -33 38
-95 59 -95 19 0 57 -57 53 -81 -4 -21 77 -108 85 -91 7 18 43 -14 43 -39 0
-27 58 -65 79 -52 22 14 51 -2 51 -27 0 -13 11 -22 37 -29 20 -6 39 -8 43 -6
4 3 24 -22 44 -54 44 -72 84 -94 159 -89 l52 3 366 -380 c202 -209 386 -402
409 -430 23 -27 72 -102 110 -166 77 -130 126 -180 190 -197 25 -6 402 -50
838 -98 698 -76 794 -85 805 -72 11 14 22 13 102 -3 137 -27 163 -37 171 -62
4 -12 12 -25 18 -29 15 -10 35 -105 23 -117 -12 -12 20 -121 36 -121 15 0 49
-93 41 -113 -7 -20 31 -106 51 -113 20 -8 55 -76 55 -106 0 -31 48 -101 65
-95 17 7 55 -46 55 -76 0 -28 77 -108 88 -90 10 16 37 -5 45 -37 4 -14 25 -36
49 -52 40 -26 43 -26 46 -8 4 25 31 15 42 -16 11 -27 62 -40 100 -26 15 6 31
6 40 0 10 -7 34 -3 75 12 33 12 125 44 205 72 80 28 150 56 155 63 6 7 20 15
33 19 12 4 36 19 52 33 24 20 28 28 20 43 -14 26 -14 27 20 38 35 13 67 70 55
99 -12 26 -7 45 15 64 23 20 44 99 29 113 -5 6 -9 29 -9 51 0 33 5 44 23 53
12 6 101 27 197 47 862 179 1475 440 1806 769 61 61 120 124 131 140 19 28 20
28 46 11 15 -9 33 -15 41 -12 15 6 56 -32 56 -51 0 -23 47 -44 84 -37 32 6 37
5 46 -19 9 -24 40 -35 75 -26 6 2 26 3 45 3 41 0 396 141 423 169 10 10 24 18
31 18 25 0 59 47 52 73 -5 21 -1 27 23 35 34 12 58 69 43 99 -11 22 -5 43 18
63 23 20 33 95 14 110 -14 12 -9 66 7 85 15 15 11 105 -5 111 -16 6 -30 92
-17 108 12 15 -5 97 -23 111 -16 13 -40 100 -31 115 10 16 -25 120 -41 120
-17 0 -43 60 -42 97 1 31 -38 103 -55 103 -15 0 -60 78 -52 90 9 15 -46 90
-66 90 -22 0 -59 46 -59 74 0 23 -64 81 -80 71 -14 -9 -50 17 -50 37 0 29 -56
61 -94 54 -28 -5 -34 -3 -44 19 -9 20 -19 25 -44 24 -18 0 -42 -4 -53 -8 -11
-5 -25 -5 -31 0 -7 6 -54 -9 -125 -39 -63 -27 -152 -64 -199 -82 -47 -19 -89
-40 -93 -47 -4 -7 -14 -13 -22 -13 -8 0 -27 -14 -44 -32 -23 -25 -28 -36 -20
-50 8 -15 5 -20 -17 -28 -14 -6 -31 -23 -37 -40 -11 -29 -14 -30 -52 -24 -78
11 -100 -33 -105 -206 -2 -36 -5 -77 -9 -92 l-6 -27 -170 98 c-165 96 -170
100 -200 155 -58 110 -163 218 -293 304 -50 34 -53 38 -46 66 8 34 7 106 -2
301 l-6 130 -307 313 c-168 173 -310 323 -314 335 -35 92 -341 394 -699 689
l-138 113 -4 190 c-3 143 -9 217 -25 299 -87 433 -322 828 -746 1251 -199 199
-304 293 -739 654 -176 148 -331 279 -343 292 -11 13 -222 317 -467 676 l-446
652 6 44 c4 25 -3 112 -16 203 -26 189 -34 205 -99 185 -46 -13 -61 -34 -61
-85 0 -19 -3 -37 -8 -40 -16 -10 -44 92 -116 424 -80 366 -100 443 -145 542
-16 35 -141 270 -280 522 l-251 460 35 28 c50 41 56 78 47 256 -8 159 -16 182
-58 182 -32 0 -53 -25 -104 -129 -24 -50 -47 -91 -50 -91 -3 0 -78 134 -167
298 -171 313 -220 426 -202 466 18 39 -42 180 -101 237 -71 69 -136 91 -285
94 -66 1 -142 1 -170 -1z m326 -95 l127 -50 25 -57 c48 -107 48 -106 -28 -127
-38 -10 -70 -14 -74 -9 -5 5 -13 24 -20 43 -9 28 -8 36 5 46 23 17 10 50 -26
65 -24 10 -118 8 -483 -9 -501 -23 -534 -26 -601 -46 -94 -28 -164 -77 -358
-250 -215 -191 -246 -229 -255 -320 -3 -31 -11 -58 -17 -60 -6 -2 -40 1 -76 8
l-64 12 3 48 c4 64 18 106 68 204 41 78 51 90 243 260 215 191 285 237 372
248 87 10 971 54 1003 49 17 -2 87 -27 156 -55z m-49 -131 c9 -7 23 -38 33
-68 9 -30 28 -71 41 -90 13 -19 32 -61 43 -93 37 -108 99 -232 261 -527 89
-162 162 -299 163 -304 2 -11 -749 -105 -846 -105 -80 -1 -57 -12 -427 197
-297 168 -333 181 -395 148 -17 -10 -39 -30 -48 -46 -19 -31 -177 -477 -177
-497 0 -7 -3 -13 -7 -13 -8 1 -237 471 -260 533 -16 45 -16 158 1 182 7 11 16
46 19 78 3 35 16 75 31 100 30 53 388 372 454 406 108 55 137 60 469 76 457
23 617 32 624 34 3 0 12 -5 21 -11z m451 -608 c92 -168 167 -313 167 -321 0
-8 -6 -23 -14 -34 -7 -11 -17 -33 -23 -49 -9 -28 -18 -13 -172 270 -89 164
-168 311 -176 325 -8 14 -32 71 -53 126 l-39 100 46 14 46 14 25 -70 c14 -38
101 -207 193 -375z m-2128 -150 c-3 -19 1 -60 9 -90 8 -30 118 -268 245 -528
127 -261 233 -483 237 -494 5 -16 3 -20 -9 -15 -19 7 -37 -11 -37 -40 0 -13
-3 -23 -8 -23 -9 0 -499 1005 -524 1075 -9 28 -17 77 -18 110 l0 61 56 -10 55
-10 -6 -36z m2489 4 c3 -26 6 -92 6 -147 0 -92 -2 -103 -26 -134 -14 -18 -28
-33 -32 -33 -4 0 -25 32 -46 71 l-39 72 54 108 c29 60 58 109 65 109 6 0 14
-21 18 -46z m-1466 -330 c171 -96 269 -145 298 -150 28 -4 194 12 466 45 233
28 432 51 444 51 17 0 69 -88 302 -512 289 -529 318 -588 352 -717 33 -126 89
-395 84 -401 -3 -3 -357 -42 -786 -87 -718 -76 -783 -84 -803 -103 l-23 -21
-306 395 c-171 222 -306 405 -306 417 0 45 -59 129 -92 129 -12 0 -18 7 -18
22 0 26 -45 106 -75 133 -12 11 -66 111 -120 222 l-98 201 88 254 c48 139 91
260 95 268 5 8 37 24 72 36 l63 22 54 -31 c30 -17 169 -95 309 -173z m1330 66
c12 -21 22 -44 22 -49 0 -19 -17 -12 -23 9 -3 14 -14 20 -31 20 -14 0 -26 2
-26 5 0 10 24 55 29 55 3 0 16 -18 29 -40z m328 -603 c309 -566 306 -558 388
-934 43 -201 49 -240 35 -227 -10 9 -33 17 -51 18 l-33 2 -51 224 c-75 333
-52 280 -412 935 -278 506 -270 486 -187 482 l40 -2 271 -498z m-2113 -345
c19 -31 19 -32 0 -32 -12 0 -26 13 -36 36 -16 34 -16 35 0 32 9 -2 25 -18 36
-36z m-64 -78 c-19 -23 -29 -16 -29 19 0 45 11 53 28 22 10 -21 11 -30 1 -41z
m-69 37 c0 -5 -3 -17 -6 -25 -5 -13 -9 -14 -20 -5 -21 17 -17 39 6 39 11 0 20
-4 20 -9z m-27 -105 c16 -32 21 -61 22 -132 1 -76 6 -98 24 -128 36 -58 59
-68 133 -60 45 5 60 3 53 -5 -6 -6 -42 -13 -80 -16 l-70 -6 -58 70 c-65 80
-73 96 -93 203 -13 70 -13 81 1 109 14 25 19 28 31 18 9 -7 25 -31 37 -53z
m278 -18 c11 -22 18 -42 15 -45 -2 -3 -17 18 -31 47 -15 29 -21 49 -16 45 6
-3 21 -24 32 -47z m-116 -8 c7 -32 -3 -140 -14 -140 -3 0 -6 38 -6 85 0 86 8
109 20 55z m-61 -6 c3 -9 6 -42 6 -74 0 -44 -4 -59 -16 -64 -9 -4 -18 -5 -19
-4 -9 10 -9 148 0 152 18 8 23 6 29 -10z m394 -532 c13 -17 164 -201 337 -409
l314 -377 55 -120 c50 -113 105 -306 86 -306 -14 0 -100 99 -100 115 0 24 -47
153 -74 200 -18 34 -23 53 -19 87 4 37 1 49 -21 75 -18 22 -37 33 -60 35 -30
3 -59 31 -270 268 -181 203 -232 266 -221 273 18 10 20 57 3 58 -7 1 -26 0
-43 0 -36 -2 -61 32 -151 202 -54 103 -56 111 -45 145 10 34 9 38 -14 55 -49
37 -65 77 -65 168 l1 84 132 -260 c73 -144 142 -275 155 -293z m438 -405 c0
-26 -3 -47 -6 -46 -5 0 -228 267 -353 422 -38 47 -90 136 -153 259 -51 103
-94 190 -94 193 0 4 137 -170 304 -387 304 -394 304 -394 302 -441z m-743 734
c20 -35 15 -41 -36 -41 -28 0 -44 6 -58 23 -25 30 -24 35 9 40 60 9 68 7 85
-22z m94 -229 c23 -48 60 -116 83 -151 23 -35 37 -68 33 -72 -5 -5 -22 -11
-39 -15 -28 -5 -35 -1 -77 49 -28 32 -47 64 -47 78 1 21 2 22 11 7 14 -24 39
-23 39 2 0 11 -18 56 -40 100 -22 44 -40 82 -40 85 0 3 8 5 18 4 11 0 30 -28
59 -87z m-142 -32 c18 -8 17 -9 -7 -9 -15 -1 -30 4 -33 9 -7 12 12 12 40 0z
m-63 -56 c-1 -10 -5 -61 -9 -112 -7 -105 -23 -106 -23 -2 0 85 10 142 24 137
6 -2 10 -13 8 -23z m108 -1 c0 -10 -61 -45 -67 -39 -3 2 0 14 7 25 10 20 60
31 60 14z m58 -123 l43 -48 -43 -22 -42 -22 -37 43 -36 42 31 28 c17 16 33 28
36 28 3 -1 24 -23 48 -49z m2514 -220 c58 -128 92 -216 98 -257 13 -78 44
-181 80 -260 16 -35 25 -65 20 -68 -10 -6 -31 20 -140 183 -47 70 -82 111 -93
112 -34 0 -1331 -210 -1339 -218 -4 -4 -1 -79 7 -167 8 -87 13 -160 12 -162
-2 -1 -17 -5 -33 -9 l-30 -6 -26 99 c-64 243 -200 721 -214 752 -8 18 -14 35
-12 36 7 6 1516 163 1548 162 l34 -2 88 -195z m-2637 150 c3 -5 1 -10 -4 -10
-6 0 -11 5 -11 10 0 6 2 10 4 10 3 0 8 -4 11 -10z m530 -214 c102 -115 185
-210 185 -211 0 -2 -9 -1 -19 2 -29 8 -64 -32 -57 -65 8 -32 24 -52 -165 194
-164 212 -184 241 -184 263 0 17 22 31 42 28 7 -1 96 -96 198 -211z m-206 42
l63 -83 -75 74 c-68 66 -83 91 -58 91 4 0 36 -37 70 -82z m658 -173 c39 -121
71 -220 70 -221 -1 -1 -43 47 -92 108 -59 71 -93 122 -98 146 -16 71 8 199 35
190 7 -3 45 -103 85 -223z m1843 212 c0 -8 9 -83 21 -167 11 -83 18 -154 16
-156 -13 -13 -73 107 -84 166 -13 74 -16 153 -6 163 12 12 53 7 53 -6z m-240
-367 c0 -5 -10 -12 -22 -15 -29 -7 -1236 -205 -1249 -205 -5 0 -9 7 -9 15 0 8
13 17 33 20 113 21 1197 193 1220 194 15 1 27 -3 27 -9z m-1680 -79 c18 -34
12 -51 -18 -51 -22 0 -29 6 -38 35 -11 34 -10 35 17 35 18 0 32 -7 39 -19z
m1796 -129 c56 -81 134 -201 174 -267 40 -66 87 -141 106 -167 18 -26 54 -88
79 -137 l45 -91 -79 64 c-144 117 -353 242 -451 271 -14 4 -70 30 -124 57
-288 144 -525 181 -917 142 -199 -20 -215 -17 -221 31 -2 19 -4 35 -3 36 2 3
1237 207 1260 208 28 1 38 -10 131 -147z m-1905 117 c21 -21 23 -60 2 -66 -13
-5 -37 28 -48 65 -8 29 17 30 46 1z m166 -169 c24 -47 43 -92 43 -100 0 -8
-31 17 -69 55 -63 64 -69 73 -64 103 4 27 9 32 27 30 15 -2 32 -26 63 -88z
m1947 -93 c41 -71 144 -222 231 -337 53 -69 103 -155 184 -317 61 -123 111
-225 111 -228 0 -23 -29 15 -100 133 -46 75 -152 238 -235 362 -180 268 -269
415 -260 429 15 25 41 9 69 -42z m-870 -67 c125 -32 231 -62 235 -66 14 -16
-196 8 -470 52 -162 27 -287 50 -279 51 8 2 49 7 90 12 153 17 183 14 424 -49z
m-629 -8 c183 -75 302 -92 710 -102 201 -5 335 -12 360 -20 148 -45 330 -178
590 -431 l168 -164 232 -470 c820 -1665 849 -1725 920 -1945 37 -113 71 -216
76 -229 5 -13 8 -25 7 -27 -2 -1 -728 718 -1615 1599 -1224 1218 -1607 1604
-1594 1609 9 4 29 9 44 13 l29 6 -7 94 c-4 53 -3 95 1 95 5 0 41 -13 79 -28z
m-175 -484 c59 -349 103 -567 171 -842 49 -195 60 -262 25 -148 -10 31 -66
212 -126 402 -115 367 -120 387 -175 720 -20 118 -38 226 -41 240 -4 22 2 18
45 -25 l50 -50 51 -297z m55 363 c-15 -13 -63 -22 -69 -12 -9 14 5 21 43 21
20 0 31 -4 26 -9z m1948 -2108 c698 -694 1265 -1263 1260 -1266 -4 -2 -143
-43 -308 -90 -337 -96 -377 -111 -432 -160 -25 -23 -56 -38 -93 -47 -152 -35
-454 -138 -675 -230 -126 -53 -374 -177 -448 -224 -31 -20 -58 -36 -59 -36 -2
0 -3 78 -3 173 0 157 -2 177 -23 229 -13 31 -44 80 -69 108 -30 34 -54 74 -68
115 -13 35 -43 99 -68 142 -88 154 -44 20 -730 2203 -203 643 -228 731 -252
875 -14 88 -28 169 -31 180 -6 21 61 -45 1999 -1972z m1154 209 c708 -1061
861 -1297 851 -1308 -2 -2 -24 7 -49 20 -87 46 -197 65 -292 50 -28 -5 -35
-10 -27 -19 8 -9 6 -14 -4 -18 -8 -3 -21 -28 -31 -56 -16 -50 -18 -51 -73 -67
-31 -9 -62 -19 -69 -21 -7 -3 -31 59 -68 174 -146 464 -385 1083 -600 1558
-73 162 -280 582 -329 669 -68 120 -96 176 -89 176 4 -1 355 -522 780 -1158z
m-578 1043 c80 -68 99 -95 868 -1220 433 -632 817 -1194 855 -1248 37 -54 68
-100 68 -102 0 -3 -46 29 -102 71 -57 42 -124 88 -150 103 -39 22 -54 39 -89
106 -177 332 -578 953 -1111 1723 -153 220 -444 635 -472 672 -13 18 25 -13
133 -105z m-309 34 c12 -23 19 -43 16 -46 -4 -4 -46 69 -46 82 0 15 12 1 30
-36z m704 -1439 c136 -278 264 -554 286 -615 36 -102 141 -429 144 -449 1 -7
-85 -39 -90 -33 -1 1 -30 90 -63 197 -112 353 -295 850 -448 1208 -41 97 -77
184 -80 192 -21 53 32 -52 251 -500z m-2340 -395 c108 -276 317 -733 357 -781
5 -6 20 -37 34 -68 23 -51 24 -57 8 -51 -10 5 -35 7 -56 6 l-37 -2 -69 145
c-55 115 -96 229 -200 555 -72 226 -131 414 -130 418 1 11 8 -7 93 -222z
m3256 -566 c58 -30 82 -49 62 -49 -5 0 -52 18 -103 40 -86 36 -91 39 -56 40
24 0 60 -12 97 -31z m176 -54 c99 -44 309 -215 704 -572 364 -330 461 -427
443 -443 -10 -9 -303 -84 -306 -79 -2 2 -16 38 -32 79 -70 185 -103 238 -220
355 -141 142 -262 232 -400 301 -110 54 -271 103 -344 105 l-36 1 31 11 c78
30 91 60 93 210 1 31 3 57 6 57 2 0 30 -11 61 -25z m-235 -88 c35 -1 76 1 92
6 26 7 27 6 27 -33 0 -31 -4 -40 -17 -40 -27 0 -313 57 -319 63 -3 3 -1 21 5
40 l12 35 68 -35 c54 -28 80 -35 132 -36z m-267 3 c-11 -52 36 -106 121 -139
l50 -19 -50 -6 c-157 -19 -243 -49 -309 -106 -46 -41 -58 -64 -85 -165 -32
-117 -29 -113 -52 -76 -46 76 -215 109 -293 56 -20 -14 -41 -25 -46 -25 -6 0
-10 -8 -10 -18 0 -11 -7 -33 -16 -51 -42 -85 63 -179 212 -189 90 -6 159 21
177 68 11 29 27 41 27 19 0 -6 14 -28 30 -49 17 -21 30 -42 30 -47 0 -5 -62
-29 -137 -52 -76 -24 -153 -52 -172 -63 -30 -17 -36 -17 -43 -4 -4 8 -101 123
-215 256 -191 223 -229 258 -240 225 -3 -9 401 -487 431 -510 11 -8 7 -26 -18
-93 l-31 -82 -225 244 c-123 134 -231 259 -241 278 -17 33 -16 35 16 122 38
100 68 136 140 170 27 13 248 81 490 151 242 69 441 128 444 131 13 13 20 1
15 -26z m-2528 -315 c88 -324 144 -558 144 -604 0 -38 4 -53 16 -58 22 -8 34
14 34 68 0 46 0 47 60 83 109 64 1111 476 1161 476 16 0 -24 -76 -57 -106 -27
-25 -34 -39 -34 -69 0 -20 7 -49 16 -65 15 -24 16 -44 7 -166 l-9 -139 61
-163 60 -163 201 -200 c110 -110 197 -202 192 -205 -11 -7 -36 -65 -55 -129
-8 -27 -30 -67 -49 -87 -41 -46 -60 -82 -70 -133 -9 -44 -8 -121 1 -135 12
-19 33 -10 39 18 3 15 21 44 40 65 l34 38 29 -64 c57 -120 198 -245 365 -321
157 -72 415 -136 553 -136 l81 0 59 -51 c69 -59 110 -79 160 -79 28 0 38 5 47
25 l11 24 29 -20 c16 -12 26 -24 23 -28 -13 -13 -570 -78 -593 -70 -47 18 -60
-24 -14 -43 166 -66 377 -121 614 -160 183 -30 604 -32 743 -4 293 59 461 171
490 327 7 35 7 35 153 88 139 50 190 80 176 103 -4 6 -19 7 -35 4 l-28 -5 20
52 c12 29 38 98 59 154 45 120 57 143 72 143 19 0 367 -351 370 -373 2 -14 32
-38 88 -70 47 -28 260 -182 473 -343 l388 -293 -21 -21 c-43 -43 -8 -71 36
-29 22 21 23 21 48 3 14 -11 26 -26 26 -34 0 -9 -69 -57 -172 -120 -95 -57
-182 -110 -193 -117 -19 -11 -43 0 -235 111 -118 68 -220 122 -227 119 -33
-13 1 -39 192 -149 113 -65 201 -121 197 -125 -28 -25 -1774 -1077 -1795
-1083 -24 -6 -27 -3 -27 18 0 13 -7 29 -15 36 -17 14 -21 100 -6 115 13 13 -5
107 -22 120 -18 14 -37 101 -24 114 11 11 -19 121 -34 121 -16 0 -42 71 -43
118 -1 23 0 42 2 42 1 0 67 -42 147 -94 l144 -95 16 -58 c49 -175 72 -210 143
-220 35 -5 42 -3 42 11 0 9 -7 19 -15 23 -24 8 -94 118 -121 186 -13 33 -30
70 -38 82 -8 12 -83 67 -167 121 l-153 99 124 6 c357 18 798 172 1149 402 106
70 221 162 221 178 0 20 -29 20 -57 0 -29 -21 -75 -38 -628 -231 -176 -62
-441 -154 -589 -206 -148 -52 -277 -94 -287 -94 -21 0 -39 28 -39 62 0 34 -36
87 -68 100 -23 10 -4 13 128 19 296 13 609 102 927 265 202 103 453 278 453
316 0 24 -21 23 -52 -2 -30 -23 -5 -14 -683 -250 -286 -100 -583 -204 -659
-231 -151 -53 -166 -56 -166 -35 0 7 -18 30 -40 50 -41 36 -52 59 -26 54 18
-4 131 124 161 182 l22 44 -76 88 c-69 80 -79 88 -111 87 -63 -2 -79 -13 -145
-103 l-65 -90 24 -25 c22 -23 23 -28 11 -45 -8 -10 -16 -24 -18 -30 -3 -8 -8
-7 -19 2 -10 8 -41 11 -99 8 -71 -4 -108 -13 -234 -59 l-150 -55 -106 28
c-125 34 -201 62 -323 119 -99 46 -116 49 -116 22 0 -27 261 -140 418 -181 46
-12 54 -25 21 -35 -11 -4 -36 -20 -55 -37 -28 -25 -32 -33 -23 -49 9 -17 6
-21 -22 -31 -40 -14 -60 -58 -52 -117 5 -37 3 -43 -15 -48 -22 -5 -27 -14 -37
-74 -4 -23 -3 -39 4 -43 17 -11 14 -83 -4 -90 -11 -4 -15 -21 -15 -61 0 -40 4
-57 15 -61 19 -8 20 -91 2 -116 -12 -15 -19 -15 -72 -3 -33 7 -86 19 -117 25
l-57 11 14 47 c12 39 12 50 1 67 -18 27 -38 357 -37 607 l1 197 -37 26 c-21
14 -35 25 -31 25 3 0 64 20 134 46 71 25 140 43 153 41 17 -4 40 10 92 54 51
44 76 59 98 59 26 0 31 4 31 25 0 54 -82 106 -841 524 l-656 361 -77 0 c-130
0 -239 -58 -406 -217 -69 -65 -90 -80 -85 -62 3 13 83 344 178 736 122 503
178 718 192 733 14 16 16 23 7 32 -16 16 -58 -6 -145 -76 -227 -182 -365 -457
-398 -794 -19 -197 14 -427 90 -616 l31 -78 -77 -85 c-42 -46 -84 -88 -94 -94
-19 -10 -102 -12 -135 -3 -12 3 -31 27 -46 57 -49 99 -89 142 -220 239 -15 11
-16 19 -7 52 8 27 8 41 0 49 -16 16 -14 68 3 86 18 21 24 107 8 123 -15 15
-16 104 -2 113 15 9 1 108 -18 122 -11 9 -16 33 -18 85 -1 40 -2 83 -3 96 0
12 -10 31 -22 43 -35 35 -47 87 -43 189 5 141 13 190 30 183 20 -7 30 28 38
134 l7 92 -96 66 c-90 63 -125 75 -125 43 0 -7 -5 -53 -11 -103 -10 -90 -10
-90 16 -112 17 -15 25 -32 25 -54 0 -30 -1 -31 -18 -16 -10 10 -21 15 -24 11
-11 -10 -48 49 -48 76 0 15 -9 35 -21 46 -45 41 3 165 114 289 99 113 136 159
166 215 l29 52 -65 64 c-48 47 -64 69 -61 86 4 27 61 60 98 56 22 -3 27 -12
46 -83z m2368 -243 c21 -26 123 -123 225 -215 l186 -169 207 -303 c114 -167
214 -318 224 -336 16 -32 14 -31 -42 18 -32 28 -70 63 -83 77 -14 14 -31 26
-38 26 -8 0 -11 5 -8 10 4 6 -135 155 -308 333 -335 342 -419 436 -449 505
-22 48 -17 74 15 90 30 15 27 16 71 -36z m897 -20 c24 -16 51 -37 59 -47 12
-16 10 -15 -17 3 -17 12 -35 22 -40 22 -6 0 -18 9 -27 19 -10 11 -28 22 -40
24 -20 4 -20 4 0 6 11 0 40 -12 65 -27z m-676 -62 c3 -5 1 -10 -4 -10 -6 0
-11 5 -11 10 0 6 2 10 4 10 3 0 8 -4 11 -10z m-983 -252 c113 -123 218 -236
233 -253 l28 -30 -12 -175 c-7 -96 -15 -177 -17 -180 -3 -2 -80 71 -172 163
l-167 167 -58 153 -58 153 7 112 c4 62 8 112 9 112 1 0 94 -100 207 -222z
m1388 163 c65 -52 143 -66 250 -48 84 15 115 28 130 57 10 19 14 17 54 -32 37
-45 41 -54 27 -60 -9 -4 -90 -26 -180 -49 l-163 -41 -15 21 c-27 40 -119 141
-141 157 -20 14 -30 34 -17 34 3 0 28 -17 55 -39z m-311 8 c32 -9 40 -16 36
-30 -9 -28 19 -46 125 -81 95 -31 101 -31 117 -15 22 22 9 46 -35 66 -21 10
-32 22 -32 35 0 16 17 4 73 -54 39 -41 86 -92 102 -113 l30 -39 203 52 c112
29 207 48 211 44 46 -53 143 -176 140 -179 -8 -7 -389 -105 -410 -105 -22 0
-79 -30 -79 -41 0 -4 7 -9 15 -13 8 -3 15 -12 15 -21 0 -8 15 -46 34 -83 19
-38 49 -111 67 -163 35 -104 52 -130 70 -112 14 14 -42 186 -91 282 l-28 57
197 52 c108 29 204 52 212 52 17 0 112 -156 140 -232 25 -64 44 -87 60 -71 8
8 4 33 -16 95 -15 45 -34 95 -42 111 -7 15 -12 27 -9 27 6 0 130 -150 148
-180 38 -61 37 -63 -75 -133 -112 -70 -198 -103 -366 -137 -54 -11 -126 -20
-159 -20 -57 0 -59 1 -59 25 0 34 -126 284 -208 415 -103 162 -156 226 -281
339 -107 97 -198 202 -162 188 9 -3 34 -11 57 -18z m-319 -80 c0 -6 147 -159
327 -340 212 -214 320 -329 307 -329 -23 1 -445 414 -530 520 -108 135 -126
160 -115 160 6 0 11 -5 11 -11z m38 -137 c69 -88 166 -191 314 -334 145 -139
214 -213 214 -227 -1 -12 36 -60 93 -121 51 -55 92 -102 90 -104 -2 -2 -48
-11 -102 -20 -80 -14 -102 -14 -121 -4 -13 7 -205 189 -426 403 -221 215 -408
391 -415 393 -28 7 -26 -21 4 -52 17 -18 31 -38 31 -45 0 -7 171 -190 380
-406 l380 -393 44 -96 c29 -61 50 -96 60 -96 25 0 19 32 -25 127 -29 65 -56
105 -102 153 -56 58 -57 60 -10 17 28 -25 64 -49 79 -53 15 -4 79 1 141 11 63
10 115 16 117 14 4 -6 66 -257 66 -270 0 -7 -36 -10 -117 -8 -112 3 -118 3
-118 -16 0 -16 8 -20 40 -22 186 -12 203 -14 198 -32 -4 -15 -13 -17 -51 -15
-26 2 -107 5 -180 8 -149 4 -162 0 -162 -59 0 -24 7 -39 22 -49 26 -19 17 -21
-15 -5 -12 6 -112 70 -222 142 -137 90 -283 198 -464 346 l-263 214 6 46 c3
25 9 94 12 153 4 58 10 112 14 118 5 8 87 -46 249 -165 220 -162 271 -191 271
-157 0 5 -9 17 -20 27 -11 10 -20 23 -20 29 -1 8 -287 241 -451 367 l-21 15
32 85 c18 46 41 93 51 104 16 16 249 102 286 104 6 1 56 -56 111 -127z m-2480
-86 c5 -88 -3 -92 -76 -44 -67 44 -71 55 -56 150 l7 38 61 -44 61 -44 3 -56z
m-938 84 c0 -5 -5 -10 -11 -10 -5 0 -7 5 -4 10 3 6 8 10 11 10 2 0 4 -4 4 -10z
m570 -34 c0 -3 -66 -26 -147 -51 -82 -26 -151 -49 -155 -51 -4 -3 -9 0 -13 5
-3 6 55 30 132 55 125 40 183 54 183 42z m4676 -17 c19 -22 19 -22 -3 -10 -48
25 -93 8 -93 -36 0 -23 -1 -23 -30 -8 -55 28 -100 15 -100 -30 0 -23 23 -48
54 -59 18 -6 18 -7 2 -25 -30 -33 -17 -63 41 -94 l52 -28 -20 -20 c-13 -13
-19 -28 -15 -41 2 -12 1 -17 -3 -12 -12 12 -211 294 -211 298 0 2 37 13 83 26
45 12 109 31 142 40 78 24 79 24 101 -1z m-5147 -25 c30 -14 60 -23 67 -20 9
3 14 -1 14 -12 1 -21 96 -106 110 -97 6 3 10 -3 10 -15 0 -29 76 -137 102
-143 14 -4 18 -11 13 -26 -7 -24 56 -156 81 -165 11 -4 14 -13 10 -30 -7 -29
38 -164 60 -181 12 -8 15 -20 10 -39 -8 -34 12 -156 30 -177 16 -18 18 -45 5
-53 -11 -7 -3 -145 11 -173 8 -16 8 -26 0 -36 -16 -19 -32 -138 -21 -159 12
-22 11 -28 -4 -28 -18 0 -58 -121 -45 -137 8 -10 5 -13 -10 -13 -11 0 -22 -7
-26 -15 -4 -11 -23 -15 -81 -15 -88 0 -96 12 -35 55 114 79 176 301 151 541
-31 290 -138 549 -291 705 -87 89 -134 115 -226 128 -58 9 -72 7 -103 -9 -114
-59 -169 -187 -178 -416 -11 -282 63 -547 216 -772 87 -128 173 -199 272 -222
46 -11 49 -13 35 -29 -9 -10 -16 -36 -16 -58 l0 -41 -55 30 c-45 24 -59 28
-70 18 -12 -10 -15 -9 -15 10 0 26 -75 99 -102 100 -11 0 -18 8 -18 21 0 26
-77 140 -92 136 -7 -1 -15 14 -18 33 -8 43 -53 133 -81 161 -12 12 -18 27 -15
36 9 22 -33 154 -56 176 -20 20 -22 29 -9 42 13 13 -17 155 -37 178 -13 15
-13 21 -2 42 15 29 8 159 -11 181 -9 11 -8 18 3 32 19 21 34 157 18 167 -7 4
-4 12 9 23 23 21 53 114 44 138 -4 11 -3 15 5 10 11 -6 82 77 82 97 0 6 3 8 6
5 3 -3 24 5 47 18 58 33 135 33 206 -2z m525 -2 c3 -5 -56 -28 -132 -52 -75
-24 -143 -45 -149 -48 -7 -2 -13 1 -13 6 0 6 62 31 138 55 157 52 149 50 156
39z m4662 -53 c15 -5 24 -12 20 -16 -8 -8 -106 37 -106 49 0 5 13 2 30 -7 16
-8 42 -20 56 -26z m-151 -26 c74 -36 70 -48 -5 -16 -33 15 -60 30 -60 35 0 12
4 11 65 -19z m-4445 -14 c7 -11 10 -22 8 -24 -5 -4 -294 -95 -304 -95 -5 0
-15 9 -22 20 -10 17 -10 21 1 25 38 15 284 93 294 94 7 1 17 -8 23 -20z m4747
-76 c-2 -1 -31 9 -64 24 -60 26 -60 27 -39 44 20 17 22 17 63 -24 24 -22 41
-42 40 -44z m-4555 -19 c-4 -76 -9 -104 -21 -104 -18 0 -28 50 -23 123 5 76 5
77 26 64 19 -13 21 -22 18 -83z m4368 86 c0 -5 -2 -10 -4 -10 -3 0 -8 5 -11
10 -3 6 -1 10 4 10 6 0 11 -4 11 -10z m-4483 -65 c5 -16 -307 -109 -320 -96
-6 6 -9 13 -6 15 10 10 286 94 303 93 11 -1 21 -7 23 -12z m4608 -27 c47 -23
85 -46 85 -50 0 -7 -169 68 -184 83 -22 20 18 7 99 -33z m-404 0 c8 -15 8 -18
0 -14 -6 4 -16 16 -22 28 -8 15 -8 18 0 14 6 -4 16 -16 22 -28z m210 -9 c34
-17 59 -32 57 -35 -7 -6 -127 49 -128 59 0 11 7 9 71 -24z m129 -29 c0 -5 -4
-10 -10 -10 -5 0 -10 5 -10 10 0 6 5 10 10 10 6 0 10 -4 10 -10z m-4514 -41
c8 -17 12 -35 7 -39 -4 -4 -69 -27 -143 -50 -74 -24 -140 -45 -147 -47 -11 -4
-43 44 -43 64 0 5 21 15 47 23 26 7 93 28 148 46 55 19 103 33 107 34 4 0 15
-14 24 -31z m4820 -86 c-2 -3 -126 54 -134 62 -2 2 5 13 14 24 l18 21 53 -52
c29 -28 51 -53 49 -55z m-339 60 c-3 -3 -11 -2 -17 2 -9 6 -9 10 1 16 14 8 27
-7 16 -18z m198 -43 c70 -34 125 -63 122 -67 -4 -3 -66 24 -139 60 -73 36
-128 66 -122 66 6 1 69 -26 139 -59z m-180 -29 c-7 -6 -105 41 -105 51 0 4 25
-4 55 -19 30 -15 52 -29 50 -32z m-4432 4 c8 -19 15 -15 -157 -70 -119 -37
-151 -44 -157 -33 -5 7 -9 16 -9 19 0 6 277 97 301 98 9 1 19 -6 22 -14z
m4374 -69 c-12 -14 -22 -24 -22 -23 -1 1 -18 26 -38 55 l-37 52 59 -30 60 -30
-22 -24z m130 78 c-3 -3 -12 -4 -19 -1 -8 3 -5 6 6 6 11 1 17 -2 13 -5z m433
-185 c0 -7 -55 -29 -71 -29 -4 0 -9 12 -11 28 -2 21 -14 32 -53 52 -27 14 -52
26 -54 28 -3 1 5 9 17 18 12 8 22 25 22 37 0 17 14 7 75 -53 41 -41 75 -78 75
-81z m-128 -7 c-12 -4 -292 129 -292 139 0 4 68 -24 151 -64 83 -39 147 -73
141 -75z m-347 128 c3 -5 1 -10 -4 -10 -6 0 -11 5 -11 10 0 6 2 10 4 10 3 0 8
-4 11 -10z m-4442 -65 c9 -24 13 -46 9 -49 -11 -6 -293 -96 -302 -96 -7 0 -43
89 -37 91 1 0 70 22 152 49 83 26 153 49 157 49 3 1 13 -19 21 -44z m4191 -81
c35 -93 46 -135 46 -178 0 -34 -4 -55 -10 -51 -5 3 -40 -10 -77 -28 -89 -45
-501 -181 -639 -211 -60 -13 -109 -23 -109 -23 -1 1 -20 80 -43 176 l-42 173
-95 101 c-52 56 -95 105 -95 109 0 5 12 8 26 8 18 0 53 -25 125 -92 54 -51
105 -96 114 -100 20 -12 87 -14 165 -6 l65 6 -60 -13 c-33 -8 -86 -19 -117
-25 -47 -9 -58 -15 -58 -31 0 -10 7 -19 15 -19 31 0 284 52 370 76 163 45 344
122 375 159 11 14 10 17 -8 22 -23 6 -28 18 -12 28 6 3 10 16 10 27 0 32 4 24
54 -108z m251 89 c19 -9 35 -20 35 -25 0 -5 -18 1 -40 12 -22 11 -40 23 -40
25 0 8 7 6 45 -12z m95 -13 c0 -5 -2 -10 -4 -10 -3 0 -8 5 -11 10 -3 6 -1 10
4 10 6 0 11 -4 11 -10z m-81 -57 c3 -2 -4 -10 -15 -17 -17 -13 -21 -12 -41 12
-12 15 -22 30 -23 34 0 6 60 -17 79 -29z m51 -3 c0 -5 -2 -10 -4 -10 -3 0 -8
5 -11 10 -3 6 -1 10 4 10 6 0 11 -4 11 -10z m111 -11 c23 -11 39 -23 36 -25
-3 -3 -27 6 -54 20 -26 14 -42 25 -35 26 7 0 31 -9 53 -21z m-4567 -26 c4 -9
3 -20 -1 -23 -8 -7 -294 -100 -308 -100 -3 0 -5 10 -3 21 3 19 26 29 148 69
173 57 156 54 164 33z m4695 3 l23 -13 -23 -6 c-39 -11 -47 -8 -42 13 6 23 10
24 42 6z m201 -16 c0 -5 -2 -10 -4 -10 -3 0 -8 5 -11 10 -3 6 -1 10 4 10 6 0
11 -4 11 -10z m-2880 -21 c0 -5 -4 -9 -10 -9 -5 0 -10 7 -10 16 0 8 5 12 10 9
6 -3 10 -10 10 -16z m2449 10 c26 -9 44 -29 26 -29 -10 0 -65 30 -65 35 0 7 3
6 39 -6z m109 -18 c10 -6 9 -10 -7 -14 -14 -3 -21 0 -21 9 0 16 9 18 28 5z
m262 -24 c0 -22 -13 -28 -153 -70 -84 -26 -159 -47 -165 -47 -16 0 -15 27 0
37 9 5 240 80 316 102 1 1 2 -9 2 -22z m-4826 -63 l6 -41 -155 -48 c-85 -27
-157 -46 -159 -44 -3 3 -8 23 -12 46 l-6 42 153 49 c85 27 157 47 160 43 4 -3
9 -24 13 -47z m2005 40 c1 -1 1 -7 -3 -12 -9 -14 -66 -2 -66 15 0 11 7 13 33
8 17 -4 34 -9 36 -11z m61 6 c0 -5 -4 -10 -10 -10 -5 0 -10 5 -10 10 0 6 5 10
10 10 6 0 10 -4 10 -10z m2375 0 c3 -5 2 -10 -4 -10 -5 0 -13 5 -16 10 -3 6
-2 10 4 10 5 0 13 -4 16 -10z m445 -27 c0 -19 -3 -24 -10 -17 -6 6 -8 18 -4
27 9 24 14 21 14 -10z m-2755 -23 c4 -6 -5 -10 -19 -10 -14 0 -26 5 -26 10 0
6 9 10 19 10 11 0 23 -4 26 -10z m2702 -76 c-2 -3 -71 -25 -153 -50 -82 -25
-155 -47 -161 -49 -15 -5 -17 13 -5 33 5 7 78 34 163 60 143 44 154 46 157 29
2 -10 2 -21 -1 -23z m-2724 26 c27 0 28 -2 22 -37 -7 -40 -57 -97 -78 -90 -6
2 -14 18 -18 36 -4 18 -12 38 -17 43 -17 17 18 59 43 53 11 -3 33 -5 48 -5z
m2234 -251 c10 -10 8 -15 -10 -23 -15 -8 -32 -40 -56 -104 l-34 -93 -39 38
c-21 20 -38 40 -38 43 0 3 10 10 22 15 13 6 27 24 32 40 4 17 12 37 16 45 4
10 -12 32 -52 71 l-60 56 70 18 c66 16 71 19 85 53 8 21 18 53 23 72 6 28 10
11 19 -92 6 -73 15 -132 22 -139z m-2102 214 c19 -17 25 -28 17 -31 -6 -2 -12
-10 -12 -18 0 -9 -11 -14 -31 -14 -28 0 -31 3 -25 23 3 12 6 32 6 45 0 28 8
27 45 -5z m2241 -20 c-3 -8 -6 -17 -6 -19 0 -3 -4 -2 -10 1 -17 11 -12 45 6
38 8 -3 13 -12 10 -20z m410 -10 c-11 -11 -19 6 -11 24 8 17 8 17 12 0 3 -10
2 -21 -1 -24z m-4856 9 c0 -15 -29 -27 -148 -65 -164 -52 -172 -53 -172 -33 0
20 0 20 156 70 160 51 164 52 164 28z m4190 -32 c-20 -12 -24 -5 -15 27 l7 28
11 -23 c8 -18 8 -25 -3 -32z m-67 0 c-4 -13 -19 -23 -47 -30 -88 -22 -126 -42
-141 -70 -8 -16 -15 -35 -15 -42 0 -28 -75 -61 -253 -113 -65 -19 -123 -35
-129 -35 -6 0 -8 12 -4 30 4 24 2 30 -12 30 -10 0 -23 5 -30 12 -9 9 15 18
101 39 155 39 304 92 422 149 55 27 103 49 107 49 3 1 4 -8 1 -19z m-1833 -39
c0 -21 -6 -30 -22 -34 -29 -8 -30 -7 -22 41 6 37 9 40 25 31 12 -6 19 -21 19
-38z m2525 -10 c-11 -10 -85 -37 -165 -61 -80 -24 -151 -45 -157 -48 -20 -7
-15 38 5 45 9 4 85 28 167 53 148 46 190 49 150 11z m-472 -33 c2 -26 1 -45
-4 -42 -5 3 -9 29 -8 57 1 59 5 54 12 -15z m-2218 42 c3 -5 19 -10 34 -10 21
0 31 -7 42 -32 16 -36 52 -48 89 -28 17 9 26 7 48 -10 35 -28 78 -46 133 -55
34 -6 140 -65 197 -111 2 -1 -3 -15 -11 -31 -8 -15 -18 -50 -22 -76 -4 -26
-11 -49 -15 -52 -6 -4 -514 338 -544 366 -6 5 -2 17 9 29 20 22 31 25 40 10z
m-2137 -37 l-3 -37 -145 -48 c-80 -26 -151 -47 -158 -47 -9 -1 -12 10 -10 36
l3 38 145 47 c80 25 151 47 158 47 9 1 12 -10 10 -36z m2398 -21 c-4 -3 -14 2
-24 12 -16 18 -16 18 6 6 13 -6 21 -14 18 -18z m2069 19 c3 -5 1 -12 -5 -16
-5 -3 -10 1 -10 9 0 18 6 21 15 7z m-357 -82 c-17 -11 -38 9 -38 34 0 20 1 20
25 -3 18 -17 22 -26 13 -31z m692 9 c-26 -46 -144 -359 -143 -380 1 -9 -5 -19
-13 -22 -8 -3 -14 -2 -14 2 0 4 29 84 65 177 36 94 65 178 65 187 0 9 -7 21
-16 26 -14 8 -8 12 27 25 24 8 45 16 46 16 1 1 -6 -14 -17 -31z m-381 -46 c1
-26 -149 -436 -156 -428 -3 2 25 84 61 181 36 97 66 182 66 188 0 7 -7 24 -14
39 -14 26 -13 29 5 38 10 6 19 18 20 28 1 25 17 -16 18 -46z m-4399 5 c0 -14
-307 -119 -315 -108 -10 17 20 32 150 74 156 51 165 52 165 34z m4615 -7 c-23
-25 -156 -377 -149 -394 5 -14 -13 -32 -22 -23 -3 3 25 85 62 183 70 187 72
205 23 213 -19 3 -13 8 31 22 71 23 77 23 55 -1z m40 -104 c-20 -53 -41 -96
-45 -96 -34 0 3 137 47 178 14 13 27 21 30 18 3 -3 -12 -48 -32 -100z m1915
97 c0 -11 -281 -126 -288 -119 -8 8 -11 6 138 69 141 59 150 62 150 50z
m-3169 -34 c-12 -13 -21 -35 -21 -50 0 -29 -5 -32 -74 -44 l-38 -6 6 38 c12
66 15 70 49 71 17 1 46 6 62 10 39 12 42 8 16 -19z m499 -25 c-74 -24 -139
-42 -145 -40 -13 4 234 84 260 84 11 0 -41 -20 -115 -44z m585 34 c-11 -6 -29
-18 -39 -27 -16 -13 -18 -14 -14 -1 2 8 15 21 29 27 30 16 51 17 24 1z m2165
-6 c0 -12 -270 -124 -284 -118 -6 2 7 12 29 21 22 9 85 36 140 60 109 47 115
49 115 37z m-2334 -17 c8 -19 -116 -356 -127 -349 -5 3 -9 14 -9 24 0 28 112
340 122 340 5 0 11 -7 14 -15z m-3100 -10 c18 -14 18 -14 -8 -15 -15 0 -39 -5
-55 -10 l-28 -10 30 25 c35 29 35 29 61 10z m-1246 -20 c0 -23 -11 -28 -156
-75 -86 -28 -158 -49 -160 -47 -2 1 -1 13 2 24 5 18 33 31 158 71 83 28 152
50 154 51 1 1 2 -10 2 -24z m4113 -43 l58 -58 -141 -43 -141 -42 -54 47 c-30
25 -55 50 -55 55 0 6 233 90 270 98 3 1 31 -25 63 -57z m-1066 31 c66 -5 86
-10 102 -27 l20 -21 -87 3 c-116 3 -149 9 -156 28 -8 22 3 37 23 29 9 -3 53
-9 98 -12z m173 -13 c0 -5 -4 -10 -9 -10 -6 0 -13 5 -16 10 -3 6 1 10 9 10 9
0 16 -4 16 -10z m1288 -75 c-11 -27 -33 -86 -49 -130 -26 -69 -72 -136 -85
-122 -4 3 110 309 123 330 3 5 11 0 18 -10 11 -15 10 -26 -7 -68z m1456 73
c-4 -7 -19 -28 -32 -46 l-25 -33 21 -15 c12 -8 22 -21 22 -29 0 -15 -32 -75
-41 -75 -3 0 -23 17 -45 37 -31 29 -35 38 -22 41 9 2 29 24 44 50 27 45 60 81
77 82 5 0 5 -6 1 -12z m-3062 -100 c27 -10 70 -18 96 -18 46 -1 48 -2 91 -62
l43 -61 -12 -79 c-7 -45 -18 -82 -25 -85 -18 -6 -88 31 -133 71 -84 74 -185
135 -263 159 -14 5 -15 13 -4 69 6 35 17 73 24 86 l12 22 61 -42 c34 -23 84
-50 110 -60z m3833 82 c17 -19 17 -20 -6 -29 -13 -5 -80 -32 -148 -61 -107
-44 -126 -49 -133 -36 -5 9 -9 19 -9 23 -1 6 252 120 272 122 3 1 14 -8 24
-19z m-5378 4 c-3 -3 -12 -4 -19 -1 -8 3 -5 6 6 6 11 1 17 -2 13 -5z m2243
-14 c0 -5 -2 -10 -4 -10 -3 0 -8 5 -11 10 -3 6 -1 10 4 10 6 0 11 -4 11 -10z
m79 -175 c0 -12 -111 106 -141 150 -11 17 16 -8 60 -55 45 -47 81 -89 81 -95z
m-225 148 c4 -4 13 -8 20 -8 7 0 32 -22 55 -49 46 -53 45 -45 20 -168 -10 -45
-11 -46 -35 -36 -16 8 -24 19 -24 37 0 15 -7 36 -15 49 -12 16 -13 26 -5 42 6
11 15 20 20 20 18 0 11 19 -25 70 -19 28 -31 50 -27 50 5 0 12 -3 16 -7z
m-1599 -230 l394 -218 -62 -13 c-132 -27 -237 -99 -444 -310 -134 -136 -143
-143 -165 -131 -64 34 -784 452 -793 460 -6 6 -3 15 7 25 34 35 624 403 646
403 13 1 200 -97 417 -216z m4470 207 c4 -6 16 -8 27 -4 16 5 20 3 15 -10 -8
-20 65 -114 99 -126 15 -6 24 -17 24 -31 0 -28 70 -149 86 -149 14 0 27 -28
19 -40 -9 -14 44 -133 67 -153 14 -12 19 -25 15 -43 -5 -29 29 -154 46 -169 7
-6 13 -47 14 -103 1 -73 5 -98 18 -113 13 -13 15 -22 8 -31 -15 -19 -23 -144
-10 -157 7 -7 6 -16 -5 -28 -16 -19 -41 -120 -33 -133 3 -4 -1 -10 -8 -13 -7
-2 -24 -28 -37 -55 -14 -28 -28 -51 -33 -52 -4 0 -25 -11 -47 -25 -26 -17 -54
-25 -83 -25 -24 0 -48 -5 -55 -12 -8 -8 -12 -8 -12 -1 0 14 -87 46 -105 39 -9
-3 -15 0 -15 8 0 18 -88 86 -112 86 -22 0 -22 1 -1 45 19 41 22 42 56 15 52
-41 130 -70 187 -69 45 0 117 16 86 18 -5 1 9 14 32 30 27 20 50 50 71 93 103
213 46 592 -134 897 -47 79 -161 209 -213 244 -23 14 -23 16 -8 46 17 32 30
39 41 21z m486 -4 c0 -5 -63 -36 -141 -69 -101 -41 -146 -55 -153 -48 -6 6 -9
12 -6 14 2 2 65 29 139 60 130 54 161 62 161 43z m-6811 -3 c0 -7 -241 -87
-300 -100 -13 -4 -13 -3 0 7 15 12 265 97 288 99 6 1 12 -2 12 -6z m3810 -63
c59 -52 47 -60 -18 -11 -28 21 -49 41 -45 45 10 10 16 7 63 -34z m362 -78
l-37 -107 -148 -18 c-82 -10 -151 -17 -153 -15 -8 9 30 124 48 143 17 19 305
116 320 108 4 -2 -10 -52 -30 -111z m-1022 78 c0 -16 -2 -30 -4 -30 -3 0 -14
14 -26 30 l-21 30 25 0 c22 0 26 -4 26 -30z m1467 14 c13 -35 -39 -133 -65
-123 -11 5 37 139 50 139 5 0 11 -7 15 -16z m-4531 -69 c40 -30 86 -74 102
-97 34 -50 65 -108 60 -113 -2 -3 -281 17 -357 25 -3 0 5 10 17 23 14 15 19
30 16 44 -5 18 -1 23 20 29 33 8 69 71 55 96 -9 16 -3 48 9 48 3 0 38 -25 78
-55z m3716 -19 c15 -11 15 -18 4 -61 l-12 -48 -12 40 c-7 23 -28 65 -48 94
l-36 52 43 -32 c24 -17 52 -37 61 -45z m3062 4 c-10 -9 -264 -115 -277 -115
-4 0 -16 14 -27 30 l-19 31 147 61 147 61 19 -30 c11 -17 15 -33 10 -38z
m-7058 9 c-82 -27 -151 -47 -153 -45 -6 6 266 95 287 94 8 0 -52 -22 -134 -49z
m6233 7 l44 -45 -19 -44 -19 -44 -48 53 -47 52 17 36 c9 20 19 36 23 36 3 0
25 -20 49 -44z m-2636 20 c4 -9 -3 -16 -16 -20 -35 -9 -47 -7 -47 8 0 25 54
36 63 12z m2457 -79 c69 -38 131 -77 138 -86 66 -84 217 -412 182 -399 -4 2
-121 68 -259 148 -178 103 -250 149 -247 160 3 8 8 72 11 142 7 127 7 128 28
116 12 -6 78 -42 147 -81z m419 -61 c17 -82 29 -151 27 -154 -3 -3 -13 1 -21
8 -24 20 -101 17 -125 -5 -11 -10 -22 -16 -24 -14 -7 9 -76 130 -76 135 0 2 6
4 14 4 7 0 19 14 26 30 7 17 18 30 25 30 7 0 37 27 65 60 29 34 54 59 55 58 2
-2 17 -70 34 -152z m-5504 32 c-179 -184 -181 -186 -165 -202 18 -18 967 -556
979 -556 5 0 18 11 29 24 20 27 62 53 217 136 l100 54 -149 -160 c-82 -87
-152 -160 -156 -162 -5 -2 -824 459 -1129 635 -42 24 -43 27 -23 34 12 5 22
16 22 26 0 12 44 49 122 103 67 47 151 106 187 133 36 26 68 47 71 47 2 0 -45
-51 -105 -112z m2461 18 c-3 -11 -8 -40 -12 -63 -7 -48 -10 -50 -41 -25 -21
16 -22 20 -11 84 l12 67 29 -21 c21 -15 27 -26 23 -42z m400 35 c-2 -3 -9 -32
-16 -63 -7 -38 -16 -58 -26 -58 -16 0 -17 1 -4 60 21 97 20 93 35 80 8 -7 13
-15 11 -19z m3288 -27 c4 -9 5 -18 4 -19 -12 -7 -280 -115 -287 -115 -5 0 -11
6 -14 14 -4 10 34 31 136 74 78 33 145 61 148 61 4 1 10 -6 13 -15z m-3622
-45 c3 -51 -5 -70 -24 -51 -11 11 0 102 12 102 5 0 10 -23 12 -51z m147 9 c5
-26 18 -39 66 -67 l60 -35 -40 -7 c-121 -20 -133 -19 -159 4 -20 17 -26 33
-28 77 l-3 55 45 5 c25 3 47 4 49 3 2 -1 6 -17 10 -35z m-2637 -91 c-74 -74
-86 -83 -113 -79 -29 4 -29 5 -12 24 21 24 184 137 198 137 5 1 -28 -36 -73
-82z m-942 69 c0 -7 -161 -58 -166 -53 -3 3 28 16 68 30 72 25 98 31 98 23z
m7085 -56 c10 -22 16 -42 13 -45 -2 -3 -68 -32 -146 -64 l-142 -59 -19 41
c-10 23 -17 43 -16 44 2 4 279 122 286 122 3 1 14 -17 24 -39z m-3298 -2 c-3
-8 -6 -5 -6 6 -1 11 2 17 5 13 3 -3 4 -12 1 -19z m-3695 -59 c439 -33 447 -34
442 -54 -4 -18 67 -61 608 -369 337 -191 628 -350 646 -353 23 -4 38 0 53 13
12 10 121 54 242 96 l222 78 40 -28 40 -28 3 -106 c2 -99 1 -108 -23 -143 -37
-56 -48 -109 -42 -210 5 -98 32 -195 78 -290 l30 -61 -18 -55 -18 -55 -785 88
c-432 48 -790 87 -796 88 -17 0 -172 183 -229 270 -53 80 -55 82 -640 690
-214 223 -397 406 -406 408 -10 2 -19 16 -21 34 l-5 30 66 -4 c36 -3 267 -20
513 -39z m3317 17 c9 -11 8 -15 -5 -20 -23 -9 -24 -8 -24 14 0 23 13 26 29 6z
m3735 -52 c4 -9 5 -18 3 -20 -4 -4 -288 -124 -294 -124 -2 0 -3 10 -1 21 2 18
30 34 138 80 74 31 138 58 141 58 4 1 10 -6 13 -15z m-7474 -177 c0 -16 -74 4
-98 26 -21 19 -42 73 -42 107 0 8 32 -17 70 -55 39 -38 70 -73 70 -78z m7489
62 c7 -23 11 -42 9 -44 -2 -2 -55 -24 -118 -50 -63 -26 -127 -54 -143 -61 -26
-14 -28 -13 -36 9 -25 66 -27 64 124 128 77 32 143 59 146 59 3 0 11 -18 18
-41z m-4405 -133 c34 -23 52 -42 45 -45 -8 -2 -39 -26 -70 -52 -31 -27 -60
-49 -64 -49 -4 0 -26 16 -49 35 -23 19 -61 43 -85 53 l-43 20 83 50 c94 56 84
57 183 -12z m4456 19 c0 -7 -6 -15 -12 -18 -7 -3 -73 -30 -147 -61 -73 -31
-135 -56 -137 -56 -2 0 -4 8 -4 18 0 13 35 33 143 78 78 33 145 59 150 57 4
-2 7 -10 7 -18z m-9 -137 c-7 -8 -269 -118 -282 -118 -5 0 -9 15 -9 34 l0 34
143 60 142 60 6 -31 c3 -18 3 -35 0 -39z m27 -92 c-6 -5 -276 -116 -282 -116
-3 0 -6 6 -6 13 0 7 56 36 128 65 70 29 134 57 142 62 11 7 16 5 18 -6 2 -9 2
-17 0 -18z m-767 -26 c15 -34 16 -40 3 -40 -16 0 -19 7 -28 59 -7 41 1 35 25
-19z m749 -53 c0 -21 -17 -30 -138 -80 -76 -31 -141 -57 -145 -57 -4 0 -7 9
-7 19 0 15 30 32 143 80 78 33 143 60 145 61 1 0 2 -10 2 -23z m-620 -167 c18
-85 35 -160 37 -167 2 -6 -8 -14 -24 -17 -28 -6 -123 23 -193 59 l-28 14 23
73 c12 40 26 97 30 126 6 49 9 52 35 52 15 0 38 9 51 19 17 14 26 16 30 8 4
-7 21 -82 39 -167z m-2935 -46 c-8 -27 -9 -27 -13 -6 -4 26 -68 73 -89 65 -13
-5 -13 -1 1 25 l16 31 47 -43 c41 -39 45 -46 38 -72z m3570 107 c-15 -13 -278
-121 -284 -116 -7 7 -6 8 139 68 134 56 163 66 145 48z m-65 -85 c-40 -22
-252 -108 -256 -104 -4 4 256 116 271 117 6 0 -1 -6 -15 -13z m-3566 -103
c-80 -35 -280 -101 -287 -94 -5 5 27 21 70 36 43 16 112 41 153 56 73 26 123
28 64 2z m-376 -61 c9 8 12 5 12 -8 0 -26 94 -106 114 -98 12 5 16 0 16 -18 0
-32 79 -138 102 -138 13 0 18 -8 18 -28 0 -34 67 -162 85 -162 16 0 25 -22 19
-47 -6 -22 41 -153 59 -168 19 -15 27 -41 16 -52 -11 -11 19 -153 36 -168 6
-6 10 -49 10 -106 0 -63 5 -105 14 -122 10 -19 11 -30 3 -39 -17 -21 -27 -155
-13 -172 10 -11 9 -16 -5 -24 -24 -13 -57 -122 -42 -139 8 -10 6 -13 -5 -13
-15 0 -77 -78 -77 -97 0 -9 -95 -55 -120 -59 -57 -7 -100 -7 -112 2 -27 20
-97 46 -107 40 -6 -4 -11 -1 -11 7 0 18 -93 97 -114 97 -9 0 -16 9 -16 20 0
25 -73 119 -103 135 -13 7 -21 19 -19 29 4 23 -53 134 -85 164 -16 14 -22 29
-18 40 7 23 -40 152 -61 169 -14 10 -17 24 -13 63 3 22 -22 132 -34 155 -6 11
-12 64 -13 118 -1 57 -6 103 -13 110 -13 13 -15 47 -2 47 12 0 23 152 11 164
-14 14 -12 26 4 26 16 0 50 118 40 143 -3 10 -3 17 2 16 22 -4 31 4 59 51 17
27 34 50 38 50 4 0 21 10 38 23 22 16 49 23 97 27 58 4 74 1 122 -21 39 -19
59 -24 68 -17z m486 40 c6 -10 -305 -122 -317 -115 -14 8 -6 12 149 68 165 60
161 58 168 47z m3411 -31 c-6 -4 -62 -29 -125 -56 -165 -68 -162 -67 -158 -53
3 7 11 13 19 13 8 0 68 23 134 52 120 51 148 61 130 44z m-3360 -71 c17 -19
17 -20 -6 -28 -95 -35 -288 -102 -295 -102 -9 0 -38 40 -32 44 7 6 294 105
304 105 6 1 19 -8 29 -19z m74 -64 c9 -10 8 -15 -2 -19 -7 -2 -79 -28 -161
-57 -121 -43 -150 -50 -157 -39 -4 8 -5 15 -1 17 18 7 298 110 303 111 4 0 12
-5 18 -13z m40 -115 l20 -39 -146 -52 c-80 -28 -151 -54 -158 -56 -7 -3 -22
11 -34 31 -19 33 -20 36 -3 43 9 4 80 30 157 58 77 29 141 53 142 53 2 1 11
-16 22 -38z m71 -90 c8 -16 5 -21 -18 -29 -15 -5 -87 -31 -161 -57 -108 -38
-135 -45 -142 -34 -5 8 -9 17 -9 20 0 5 287 113 312 118 4 0 12 -8 18 -18z
m20 -106 c19 -50 22 -75 10 -75 -6 0 -74 -22 -151 -50 -77 -27 -144 -50 -149
-50 -6 0 -15 12 -21 27 -23 62 -25 61 131 118 80 30 151 54 158 54 7 1 17 -10
22 -24z m63 -126 c3 -11 0 -22 -6 -24 -7 -2 -76 -27 -155 -55 -78 -28 -147
-48 -153 -44 -29 18 5 39 141 89 80 29 150 54 156 54 7 1 14 -8 17 -20z m1
-86 c2 -10 7 -32 11 -49 l6 -31 -156 -57 c-86 -31 -158 -56 -160 -56 -3 0 -25
94 -22 96 5 3 303 112 309 113 4 1 9 -7 12 -16z m54 -155 c2 -12 -33 -28 -140
-66 -79 -28 -150 -53 -159 -57 -16 -6 -36 21 -25 33 10 9 301 111 311 108 6
-1 11 -10 13 -18z m-9 -124 c1 -15 -8 -25 -26 -33 -32 -12 -284 -101 -288
-101 -8 0 -10 72 -2 77 5 3 75 30 156 59 156 56 158 56 160 -2z m21 -102 c0
-14 -31 -29 -147 -70 -156 -55 -177 -60 -171 -39 3 8 268 115 316 126 1 1 2
-7 2 -17z m-25 -94 c-4 -13 -10 -26 -14 -30 -5 -6 -287 -108 -298 -108 -1 0
-3 11 -3 23 0 21 15 29 153 79 83 31 156 57 160 57 5 1 5 -9 2 -21z m5 -116
c0 -4 -70 -33 -155 -64 -86 -30 -154 -50 -152 -45 2 6 68 35 148 63 156 57
159 58 159 46z m-55 -81 c-15 -14 -297 -113 -303 -106 -4 3 3 8 13 11 11 3 79
27 150 54 138 51 155 56 140 41z m-76 -171 c-14 -8 -297 -110 -305 -110 -2 0
-1 7 2 15 4 8 16 15 28 15 12 0 78 20 146 44 123 44 161 55 129 36z"/>
<path d="M5235 5119 c-87 -11 -95 -14 -95 -35 0 -15 9 -16 84 -10 99 7 118 13
114 35 -4 20 -16 21 -103 10z"/>
<path d="M4209 4214 c-11 -13 -14 -58 -13 -198 1 -199 12 -260 74 -410 39 -92
61 -122 84 -113 15 6 15 9 -3 44 -26 51 -115 573 -107 630 6 49 -12 74 -35 47z"/>
<path d="M3035 4030 c-8 -13 -12 -6 129 -200 153 -211 156 -214 174 -196 12
12 -6 41 -129 210 -79 108 -149 196 -156 196 -6 0 -15 -4 -18 -10z"/>
<path d="M8280 2458 c-53 -27 -70 -66 -23 -53 15 4 64 10 108 12 l80 5 242
-124 c184 -94 245 -120 254 -111 6 6 8 16 5 21 -12 19 -460 243 -516 258 -74
19 -98 18 -150 -8z"/>
<path d="M8275 2338 c-2 -7 -6 -33 -9 -58 -3 -25 -8 -65 -12 -89 -6 -38 -5
-43 12 -39 24 4 42 64 43 141 1 45 -2 57 -14 57 -9 0 -17 -6 -20 -12z"/>
<path d="M4395 1830 c-319 -38 -588 -69 -598 -69 -22 -1 -34 -30 -17 -41 7 -4
20 -6 29 -4 35 8 903 105 907 102 2 -2 -25 -10 -59 -17 -34 -6 -159 -32 -277
-57 -321 -67 -691 -144 -696 -144 -2 0 -4 -9 -4 -20 0 -27 9 -26 201 15 90 19
349 73 574 119 226 47 417 90 425 95 8 4 14 12 12 17 -5 12 27 22 73 23 22 1
46 5 54 10 20 13 5 41 -21 40 -13 -1 -284 -32 -603 -69z"/>
<path d="M3628 1741 c-54 -8 -63 -14 -54 -37 5 -12 14 -15 37 -10 18 3 41 6
53 6 11 0 27 4 35 9 12 8 12 12 2 25 -8 9 -16 15 -20 15 -3 -1 -27 -5 -53 -8z"/>
<path d="M5757 1636 c-244 -129 -218 -762 48 -1162 118 -176 241 -267 363
-268 44 0 66 5 75 16 6 8 26 25 43 36 44 30 88 103 116 192 20 66 23 95 22
230 0 130 -4 173 -26 266 -80 342 -278 637 -463 688 -92 26 -131 26 -178 2z"/>
</g>
</svg>
