<?xml version="1.0" standalone="no"?>
<!DOCTYPE svg PUBLIC "-//W3C//DTD SVG 20010904//EN"
 "http://www.w3.org/TR/2001/REC-SVG-20010904/DTD/svg10.dtd">
<svg version="1.0" xmlns="http://www.w3.org/2000/svg"
 width="1280.000000pt" height="1231.000000pt" viewBox="0 0 1280.000000 1231.000000"
 preserveAspectRatio="xMidYMid meet">
<metadata>
Created by potrace 1.15, written by Peter Selinger 2001-2017
</metadata>
<g transform="translate(0.000000,1231.000000) scale(0.100000,-0.100000)"
fill="#000000" stroke="none">
<path d="M2140 12303 c-271 -29 -540 -139 -800 -326 -418 -300 -712 -649
-1184 -1401 l-156 -249 47 -72 c27 -39 527 -785 1112 -1657 l1063 -1586 114
-47 c106 -44 114 -49 114 -75 0 -99 86 -308 165 -397 52 -60 380 -318 429
-338 18 -8 507 -179 1087 -380 579 -201 1055 -368 1058 -370 10 -10 -27 -4
-178 30 l-156 36 -275 -89 -275 -89 -37 -233 -38 -232 144 -191 144 -191 -44
-88 c-24 -48 -44 -94 -44 -103 0 -34 113 -315 129 -319 107 -32 986 -236 988
-230 15 41 104 179 115 178 7 -1 357 -99 778 -219 421 -119 1097 -311 1503
-426 405 -115 1071 -304 1480 -420 408 -115 1046 -296 1417 -401 371 -105 679
-194 684 -198 4 -5 15 -39 23 -77 12 -57 183 -1361 254 -1943 12 -96 25 -179
29 -183 4 -5 192 153 418 351 226 198 442 386 481 418 46 38 71 65 71 79 0 11
-7 315 -15 675 -8 360 -19 858 -25 1105 -5 248 -15 673 -21 945 -6 272 -16
730 -22 1017 l-12 523 -59 -48 c-43 -34 -703 -756 -863 -943 -9 -11 -20 -103
-35 -307 -16 -212 -25 -292 -34 -292 -7 0 -392 81 -856 181 -463 99 -1104 236
-1423 304 -319 68 -1097 234 -1728 369 -631 136 -1150 246 -1152 246 -3 0 -5
14 -5 31 0 37 -40 45 348 -67 l293 -85 362 185 362 185 -4 108 c-2 59 -6 150
-10 202 l-6 94 -173 51 c-193 56 -187 50 -91 102 80 44 389 442 597 771 l71
111 3 144 3 143 195 20 195 20 3 71 3 71 112 7 c62 4 147 9 190 13 l77 6 -5
46 c-5 42 -44 444 -171 1764 -27 274 -51 501 -54 506 -6 10 -1173 599 -3935
1986 -610 307 -1245 626 -1410 710 -602 306 -801 403 -870 424 -137 41 -347
60 -495 44z"/>
</g>
</svg>
