<?xml version="1.0" standalone="no"?>
<!DOCTYPE svg PUBLIC "-//W3C//DTD SVG 20010904//EN"
 "http://www.w3.org/TR/2001/REC-SVG-20010904/DTD/svg10.dtd">
<svg version="1.0" xmlns="http://www.w3.org/2000/svg"
 width="817.000000pt" height="1280.000000pt" viewBox="0 0 817.000000 1280.000000"
 preserveAspectRatio="xMidYMid meet">
<metadata>
Created by potrace 1.15, written by Peter Selinger 2001-2017
</metadata>
<g transform="translate(0.000000,1280.000000) scale(0.100000,-0.100000)"
fill="#000000" stroke="none">
<path d="M6547 12780 c-69 -18 -87 -27 -160 -88 -117 -98 -329 -320 -368 -386
-23 -38 -40 -56 -54 -56 -65 0 -125 -83 -125 -173 0 -29 -16 -115 -36 -191
-19 -77 -39 -182 -44 -235 -20 -241 -32 -304 -61 -338 -66 -76 -94 -257 -86
-544 l6 -197 -35 -133 c-19 -74 -34 -143 -34 -154 0 -37 -70 -349 -94 -420
-49 -143 -1168 -3011 -1181 -3025 -15 -18 -296 -744 -300 -777 -2 -13 -112
-303 -245 -645 -133 -343 -442 -1138 -687 -1768 -245 -630 -453 -1154 -464
-1166 -10 -11 -28 -48 -40 -81 -16 -49 -26 -63 -50 -73 -45 -19 -75 -62 -92
-132 -49 -198 -59 -257 -50 -285 9 -24 2 -51 -42 -173 -54 -151 -142 -335
-194 -406 -17 -22 -49 -54 -72 -69 l-41 -29 -179 3 -179 3 -92 -65 c-51 -36
-142 -106 -203 -156 l-110 -92 -220 5 c-121 4 -295 7 -387 7 l-168 1 -72 -35
c-40 -19 -107 -59 -149 -88 -41 -30 -101 -72 -132 -94 -31 -22 -64 -55 -72
-73 -20 -41 -35 -134 -35 -224 l0 -67 53 -5 c28 -4 275 -22 547 -41 590 -42
599 -43 1280 -100 294 -25 731 -58 970 -74 l435 -28 128 58 c245 113 272 123
308 110 59 -20 94 -14 147 29 28 21 53 44 57 50 14 22 45 10 59 -25 8 -19 25
-39 38 -44 17 -7 559 -42 634 -41 6 0 16 -19 23 -41 15 -51 88 -126 151 -157
64 -31 241 -42 658 -42 318 0 345 1 380 19 44 23 93 73 116 118 20 40 -14 39
491 18 198 -8 430 -15 516 -15 174 0 211 8 288 63 l46 33 98 -22 c54 -12 99
-24 100 -26 1 -1 11 -20 21 -40 10 -21 43 -62 72 -92 58 -59 95 -74 156 -61
77 16 189 109 230 189 11 22 29 50 39 61 73 81 114 333 126 780 10 387 -22
666 -89 788 l-24 42 -74 0 c-41 1 -105 9 -142 19 l-67 19 -6 71 c-4 39 -5 199
-3 356 5 420 -15 929 -42 1052 -46 220 -159 455 -297 622 -13 16 -27 42 -30
57 -6 32 -6 32 -129 54 l-92 17 -31 87 c-74 207 -203 362 -461 557 -36 26 -74
57 -85 67 -32 29 -464 157 -532 157 -24 0 -25 2 -19 37 14 85 18 441 6 525
-11 82 -38 148 -60 148 -25 0 -4 134 38 238 l25 64 50 -104 c40 -83 62 -116
116 -168 223 -220 630 -255 987 -86 232 110 373 256 509 526 98 195 131 338
122 537 -6 160 -38 288 -108 431 -42 86 -64 118 -127 182 -124 125 -259 181
-444 184 -54 0 -98 5 -98 9 0 4 14 40 31 80 175 410 287 802 363 1267 84 511
142 1435 117 1840 -28 429 -94 731 -222 1008 -129 280 -519 429 -799 305 -30
-13 -62 -31 -71 -39 -10 -9 -31 -14 -52 -12 l-34 3 28 85 c15 47 67 164 116
260 70 139 98 185 139 226 66 65 84 100 84 162 0 36 -5 54 -20 67 -29 26 -102
28 -193 5z m358 -1424 c22 -33 61 -197 86 -361 27 -179 36 -537 20 -784 -48
-710 -208 -1627 -370 -2111 -27 -80 -120 -314 -208 -520 -88 -206 -170 -400
-182 -432 -19 -47 -36 -67 -103 -124 -134 -112 -415 -393 -502 -501 -168 -209
-253 -426 -272 -694 -4 -68 -13 -108 -30 -144 -16 -35 -26 -79 -32 -145 -10
-108 2 -368 23 -510 7 -52 12 -96 11 -97 -2 -2 -40 -14 -86 -28 -89 -27 -271
-124 -348 -185 -99 -79 -174 -167 -225 -265 -17 -33 -54 -74 -107 -119 -44
-38 -113 -107 -151 -152 -71 -82 -71 -83 -143 -99 -72 -15 -73 -16 -123 -83
-164 -219 -300 -550 -370 -900 -20 -101 -27 -174 -33 -357 -5 -144 -16 -281
-29 -365 -22 -146 -41 -355 -41 -456 0 -63 0 -63 -51 -111 -140 -131 -207
-441 -182 -848 7 -99 10 -181 8 -183 -4 -5 -187 16 -193 22 -2 3 3 17 12 30
10 16 16 46 16 79 0 70 -30 116 -85 136 -48 16 -159 17 -197 3 -37 -15 -99
-72 -159 -149 -28 -35 -53 -62 -55 -60 -2 2 -11 52 -19 113 -17 115 -37 181
-66 217 -16 22 -15 27 46 177 34 85 77 180 94 211 55 99 91 198 171 474 71
241 151 460 758 2055 542 1423 683 1785 697 1785 11 0 22 14 31 40 7 23 72
198 144 390 82 221 126 352 121 359 -6 7 204 571 578 1556 563 1479 603 1580
682 1692 10 14 27 50 37 80 15 40 196 439 208 456 1 2 14 -4 28 -13 30 -20 80
-22 130 -5 128 42 226 323 196 564 -6 47 -13 92 -16 99 -3 8 6 18 20 25 43 19
102 80 147 150 47 73 78 112 91 112 4 0 15 -11 23 -24z m240 -4475 c50 -22
101 -79 133 -149 49 -107 18 -209 -123 -406 -117 -163 -223 -234 -362 -244
-72 -5 -73 -4 -107 30 -58 58 -70 151 -40 309 16 87 78 309 95 340 12 24 131
94 200 119 68 24 152 25 204 1z"/>
</g>
</svg>
